<svg width="9" height="17" viewBox="0 0 9 17" fill="none" xmlns="http://www.w3.org/2000/svg">
<path d="M1.7591 16.4164C1.93426 16.417 2.10733 16.3783 2.26559 16.3032C2.42386 16.2282 2.56329 16.1186 2.67364 15.9826L8.33679 8.9476C8.50924 8.7378 8.60352 8.47464 8.60352 8.20306C8.60352 7.93148 8.50924 7.66833 8.33679 7.45853L2.47432 0.423566C2.2753 0.184123 1.98932 0.0335465 1.67928 0.00496141C1.36924 -0.0236237 1.06054 0.0721244 0.821101 0.271142C0.581657 0.470159 0.431082 0.756144 0.402496 1.06618C0.373911 1.37622 0.469659 1.68492 0.668676 1.92436L5.90972 8.20893L0.844551 14.4935C0.701175 14.6656 0.610099 14.8752 0.5821 15.0974C0.554102 15.3197 0.590351 15.5453 0.686562 15.7476C0.782772 15.9499 0.934914 16.1203 1.12499 16.2389C1.31506 16.3574 1.53511 16.419 1.7591 16.4164Z" fill="#B8B8B8"/>
</svg>
