<svg width="19" height="20" viewBox="0 0 19 20" fill="none" xmlns="http://www.w3.org/2000/svg">
<path d="M2.375 15V10C2.375 8.01088 3.12567 6.10322 4.46186 4.6967C5.79806 3.29018 7.61033 2.5 9.5 2.5C11.3897 2.5 13.2019 3.29018 14.5381 4.6967C15.8743 6.10322 16.625 8.01088 16.625 10V15" stroke="#286BEC" stroke-width="2" stroke-linecap="round" stroke-linejoin="round"/>
<path d="M16.625 15.8333C16.625 16.2754 16.4582 16.6993 16.1613 17.0118C15.8643 17.3244 15.4616 17.5 15.0417 17.5H14.25C13.8301 17.5 13.4273 17.3244 13.1304 17.0118C12.8335 16.6993 12.6667 16.2754 12.6667 15.8333V13.3333C12.6667 12.8913 12.8335 12.4674 13.1304 12.1548C13.4273 11.8423 13.8301 11.6667 14.25 11.6667H16.625V15.8333ZM2.375 15.8333C2.375 16.2754 2.54181 16.6993 2.83875 17.0118C3.13568 17.3244 3.53841 17.5 3.95833 17.5H4.75C5.16993 17.5 5.57265 17.3244 5.86959 17.0118C6.16652 16.6993 6.33333 16.2754 6.33333 15.8333V13.3333C6.33333 12.8913 6.16652 12.4674 5.86959 12.1548C5.57265 11.8423 5.16993 11.6667 4.75 11.6667H2.375V15.8333Z" stroke="#286BEC" stroke-width="2" stroke-linecap="round" stroke-linejoin="round"/>
</svg>
