<svg width="34" height="34" viewBox="0 0 34 34" fill="none" xmlns="http://www.w3.org/2000/svg">
<path d="M4.11578 14.6698C4.26093 11.3502 5.68181 8.21461 8.08218 5.9169C10.4826 3.61918 13.6772 2.33663 17 2.33663C20.3229 2.33663 23.5175 3.61918 25.9179 5.9169C28.3182 8.21461 29.7391 11.3502 29.8843 14.6698C29.8881 14.8227 29.9515 14.9681 30.0611 15.0749C30.1706 15.1817 30.3175 15.2414 30.4705 15.2414H31.6552C31.6552 11.3546 30.1112 7.62699 27.3628 4.87861C24.6144 2.13023 20.8868 0.586206 17 0.586206C13.1132 0.586206 9.38563 2.13023 6.63725 4.87861C3.88887 7.62699 2.34485 11.3546 2.34485 15.2414H3.53192C3.68448 15.2408 3.83081 15.1808 3.93983 15.0741C4.04885 14.9674 4.11197 14.8223 4.11578 14.6698Z" fill="#BA52BC"/>
<path d="M1.17241 32.2414H3.51724V22.8621H1.17241C0.86147 22.8621 0.563262 22.9856 0.343392 23.2055C0.123522 23.4253 0 23.7235 0 24.0345V31.069C0 31.3799 0.123522 31.6781 0.343392 31.898C0.563262 32.1179 0.86147 32.2414 1.17241 32.2414Z" fill="white"/>
<path d="M3.51721 32.2414V32.8276C3.51721 33.1385 3.64073 33.4367 3.8606 33.6566C4.08047 33.8765 4.37868 34 4.68963 34H8.20687C8.51781 34 8.81602 33.8765 9.03589 33.6566C9.25576 33.4367 9.37928 33.1385 9.37928 32.8276V22.2759C9.37928 21.9649 9.25576 21.6667 9.03589 21.4468C8.81602 21.227 8.51781 21.1034 8.20687 21.1034H4.68963C4.37868 21.1034 4.08047 21.227 3.8606 21.4468C3.64073 21.6667 3.51721 21.9649 3.51721 22.2759V32.2414Z" fill="white"/>
<path d="M3.51719 22.2759V19.931C3.51719 19.7756 3.45543 19.6265 3.34549 19.5165C3.23556 19.4066 3.08646 19.3448 2.93098 19.3448H1.75857C1.6031 19.3448 1.45399 19.4066 1.34406 19.5165C1.23412 19.6265 1.17236 19.7756 1.17236 19.931V22.8621H3.51719V22.2759Z" fill="#BA52BC"/>
<path d="M30.4828 32.2414H32.8276C33.1386 32.2414 33.4368 32.1179 33.6566 31.898C33.8765 31.6781 34 31.3799 34 31.069V24.0345C34 23.7235 33.8765 23.4253 33.6566 23.2055C33.4368 22.9856 33.1386 22.8621 32.8276 22.8621H30.4828V32.2414Z" fill="white"/>
<path d="M30.4828 22.2759C30.4828 21.9649 30.3593 21.6667 30.1394 21.4468C29.9195 21.227 29.6213 21.1034 29.3104 21.1034H25.7931C25.4822 21.1034 25.184 21.227 24.9641 21.4468C24.7442 21.6667 24.6207 21.9649 24.6207 22.2759V32.8276C24.6207 33.1385 24.7442 33.4367 24.9641 33.6566C25.184 33.8765 25.4822 34 25.7931 34H29.3104C29.6213 34 29.9195 33.8765 30.1394 33.6566C30.3593 33.4367 30.4828 33.1385 30.4828 32.8276V22.2759Z" fill="white"/>
<path d="M30.4828 19.931V22.8621H32.8276V19.931C32.8276 19.7756 32.7659 19.6265 32.6559 19.5165C32.546 19.4066 32.3969 19.3448 32.2414 19.3448H31.069C30.9135 19.3448 30.7644 19.4066 30.6545 19.5165C30.5445 19.6265 30.4828 19.7756 30.4828 19.931Z" fill="#BA52BC"/>
<path d="M32.2414 19.3448H31.069V15.2414C31.069 11.5101 29.5868 7.93156 26.9483 5.29312C24.3099 2.65468 20.7314 1.17241 17 1.17241C13.2687 1.17241 9.69023 2.65468 7.05179 5.29312C4.41334 7.93156 2.93108 11.5101 2.93108 15.2414V19.3448H1.75867V15.2414C1.75867 11.1991 3.36445 7.32241 6.22276 4.4641C9.08108 1.60578 12.9578 0 17 0C21.0423 0 24.919 1.60578 27.7773 4.4641C30.6356 7.32241 32.2414 11.1991 32.2414 15.2414V19.3448Z" fill="white"/>
</svg>
