<svg width="28" height="28" viewBox="0 0 28 28" fill="none" xmlns="http://www.w3.org/2000/svg">
<path d="M1.03699 18.6667C1.03699 17.5212 1.96558 16.5926 3.11106 16.5926H9.33328C10.4787 16.5926 11.4074 17.5212 11.4074 18.6667V24.8889C11.4074 26.0343 10.4787 26.963 9.33328 26.963H3.11106C1.96558 26.963 1.03699 26.0343 1.03699 24.8889V18.6667Z" fill="white"/>
<path d="M0 5.18519C0 4.03973 0.928594 3.11111 2.07407 3.11111H9.33333C10.4788 3.11111 11.4074 4.03973 11.4074 5.18519V12.4444C11.4074 13.5899 10.4788 14.5185 9.33333 14.5185H2.07407C0.928594 14.5185 0 13.5899 0 12.4444V5.18519ZM13.4815 18.6667C13.4815 17.5212 14.4101 16.5926 15.5556 16.5926H22.8148C23.9603 16.5926 24.8889 17.5212 24.8889 18.6667V25.9259C24.8889 27.0714 23.9603 28 22.8148 28H15.5556C14.4101 28 13.4815 27.0714 13.4815 25.9259V18.6667Z" fill="white"/>
<path d="M13.4814 2.07407C13.4814 0.928594 14.4101 0 15.5555 0H25.9259C27.0713 0 28 0.928594 28 2.07407V12.4444C28 13.5899 27.0713 14.5185 25.9259 14.5185H15.5555C14.4101 14.5185 13.4814 13.5899 13.4814 12.4444V2.07407Z" fill="#A88EFE"/>
</svg>
