<svg width="30" height="30" viewBox="0 0 30 30" fill="none" xmlns="http://www.w3.org/2000/svg">
<path d="M26.5384 30H8.07689C6.16509 30 4.61536 28.4503 4.61536 26.5385V8.07693C4.61536 6.16512 6.16509 4.61539 8.07689 4.61539H26.5384C28.4502 4.61539 30 6.16512 30 8.07693V26.5385C30 28.4503 28.4502 30 26.5384 30Z" fill="white"/>
<path d="M25.3846 3.46154V21.9231C25.3846 23.8385 23.8385 25.3846 21.9231 25.3846H3.46154C1.54615 25.3846 0 23.8385 0 21.9231V3.46154C0 1.54615 1.54615 0 3.46154 0H21.9231C23.8385 0 25.3846 1.54615 25.3846 3.46154Z" fill="white"/>
<path d="M15 11.5385C16.9117 11.5385 18.4615 9.98868 18.4615 8.07693C18.4615 6.16517 16.9117 4.61539 15 4.61539C13.0882 4.61539 11.5385 6.16517 11.5385 8.07693C11.5385 9.98868 13.0882 11.5385 15 11.5385Z" fill="#FE8550"/>
<path d="M25.3846 8.71155V21.9231C25.3846 23.8349 23.8349 25.3846 21.9231 25.3846H3.46154C1.54973 25.3846 0 23.8349 0 21.9231V20.7692L7.32138 13.4479C7.74773 13.0215 8.43046 12.9953 8.88819 13.3877L15.2724 18.86C15.7583 19.2765 16.4904 19.2179 16.904 18.7295L25.3846 8.71155Z" fill="#ED7541"/>
</svg>
