<svg width="24" height="34" viewBox="0 0 24 34" fill="none" xmlns="http://www.w3.org/2000/svg">
<path d="M23.6836 7.49819L17.1382 0.952734C17.0362 0.851627 16.9154 0.771636 16.7824 0.717348C16.6495 0.663059 16.5072 0.635541 16.3636 0.636371H3.27273C2.40475 0.636371 1.57232 0.981175 0.95856 1.59493C0.344804 2.20869 0 3.04112 0 3.9091V30.0909C0 30.9589 0.344804 31.7913 0.95856 32.4051C1.57232 33.0188 2.40475 33.3636 3.27273 33.3636H20.7273C21.5953 33.3636 22.4277 33.0188 23.0414 32.4051C23.6552 31.7913 24 30.9589 24 30.0909V8.27273C24.0008 8.12916 23.9733 7.98684 23.919 7.85393C23.8647 7.72101 23.7847 7.60012 23.6836 7.49819Z" fill="white"/>
<path d="M17.1381 0.952734C17.0362 0.851627 16.9153 0.771636 16.7824 0.717348C16.6495 0.663059 16.5071 0.635541 16.3636 0.636371H15.2727V7.89092C15.2755 8.28063 15.4316 8.65356 15.7072 8.92914C15.9827 9.20471 16.3557 9.36079 16.7454 9.36364H23.9999V8.27273C24.0008 8.12916 23.9733 7.98684 23.919 7.85393C23.8647 7.72101 23.7847 7.60012 23.6836 7.49819L17.1381 0.952734ZM17.629 18.3636H6.71994C6.43061 18.3636 6.15313 18.2487 5.94855 18.0441C5.74396 17.8395 5.62903 17.5621 5.62903 17.2727C5.62903 16.9834 5.74396 16.7059 5.94855 16.5013C6.15313 16.2968 6.43061 16.1818 6.71994 16.1818H17.629C17.9184 16.1818 18.1958 16.2968 18.4004 16.5013C18.605 16.7059 18.7199 16.9834 18.7199 17.2727C18.7199 17.5621 18.605 17.8395 18.4004 18.0441C18.1958 18.2487 17.9184 18.3636 17.629 18.3636ZM17.629 23.8182H6.71994C6.43061 23.8182 6.15313 23.7033 5.94855 23.4987C5.74396 23.2941 5.62903 23.0166 5.62903 22.7273C5.62903 22.438 5.74396 22.1605 5.94855 21.9559C6.15313 21.7513 6.43061 21.6364 6.71994 21.6364H17.629C17.9184 21.6364 18.1958 21.7513 18.4004 21.9559C18.605 22.1605 18.7199 22.438 18.7199 22.7273C18.7199 23.0166 18.605 23.2941 18.4004 23.4987C18.1958 23.7033 17.9184 23.8182 17.629 23.8182ZM17.629 29.2727H6.71994C6.43061 29.2727 6.15313 29.1578 5.94855 28.9532C5.74396 28.7486 5.62903 28.4712 5.62903 28.1818C5.62903 27.8925 5.74396 27.615 5.94855 27.4104C6.15313 27.2059 6.43061 27.0909 6.71994 27.0909H17.629C17.9184 27.0909 18.1958 27.2059 18.4004 27.4104C18.605 27.615 18.7199 27.8925 18.7199 28.1818C18.7199 28.4712 18.605 28.7486 18.4004 28.9532C18.1958 29.1578 17.9184 29.2727 17.629 29.2727Z" fill="#31AECF"/>
<path d="M17.4546 18.0909H6.5455C6.25617 18.0909 5.9787 17.976 5.77411 17.7714C5.56952 17.5668 5.45459 17.2893 5.45459 17C5.45459 16.7107 5.56952 16.4332 5.77411 16.2286C5.9787 16.024 6.25617 15.9091 6.5455 15.9091H17.4546C17.7439 15.9091 18.0214 16.024 18.226 16.2286C18.4306 16.4332 18.5455 16.7107 18.5455 17C18.5455 17.2893 18.4306 17.5668 18.226 17.7714C18.0214 17.976 17.7439 18.0909 17.4546 18.0909ZM17.4546 23.5455H6.5455C6.25617 23.5455 5.9787 23.4305 5.77411 23.2259C5.56952 23.0214 5.45459 22.7439 5.45459 22.4546C5.45459 22.1652 5.56952 21.8877 5.77411 21.6832C5.9787 21.4786 6.25617 21.3636 6.5455 21.3636H17.4546C17.7439 21.3636 18.0214 21.4786 18.226 21.6832C18.4306 21.8877 18.5455 22.1652 18.5455 22.4546C18.5455 22.7439 18.4306 23.0214 18.226 23.2259C18.0214 23.4305 17.7439 23.5455 17.4546 23.5455ZM17.4546 29H6.5455C6.25617 29 5.9787 28.8851 5.77411 28.6805C5.56952 28.4759 5.45459 28.1984 5.45459 27.9091C5.45459 27.6198 5.56952 27.3423 5.77411 27.1377C5.9787 26.9331 6.25617 26.8182 6.5455 26.8182H17.4546C17.7439 26.8182 18.0214 26.9331 18.226 27.1377C18.4306 27.3423 18.5455 27.6198 18.5455 27.9091C18.5455 28.1984 18.4306 28.4759 18.226 28.6805C18.0214 28.8851 17.7439 29 17.4546 29Z" fill="#75DEFA"/>
<path d="M18.4146 16.4982C18.2621 16.4104 18.0888 16.3651 17.9128 16.3673H7.00368C6.71435 16.3673 6.43688 16.4822 6.23229 16.6868C6.02771 16.8914 5.91277 17.1689 5.91277 17.4582C5.91064 17.6342 5.95586 17.8075 6.04368 17.96C5.86745 17.8687 5.71946 17.7311 5.61566 17.5619C5.51185 17.3927 5.45616 17.1985 5.45459 17C5.45459 16.7107 5.56952 16.4332 5.77411 16.2286C5.9787 16.024 6.25617 15.9091 6.5455 15.9091H17.4546C17.6531 15.9107 17.8473 15.9664 18.0165 16.0702C18.1857 16.174 18.3233 16.322 18.4146 16.4982ZM18.4146 21.9527C18.2621 21.8649 18.0888 21.8197 17.9128 21.8218H7.00368C6.71435 21.8218 6.43688 21.9368 6.23229 22.1413C6.02771 22.3459 5.91277 22.6234 5.91277 22.9127C5.91064 23.0887 5.95586 23.262 6.04368 23.4145C5.86745 23.3233 5.71946 23.1856 5.61566 23.0165C5.51185 22.8473 5.45616 22.653 5.45459 22.4546C5.45459 22.1652 5.56952 21.8877 5.77411 21.6832C5.9787 21.4786 6.25617 21.3636 6.5455 21.3636H17.4546C17.6531 21.3652 17.8473 21.4209 18.0165 21.5247C18.1857 21.6285 18.3233 21.7765 18.4146 21.9527ZM18.4146 27.4073C18.2621 27.3195 18.0888 27.2742 17.9128 27.2764H7.00368C6.71435 27.2764 6.43688 27.3913 6.23229 27.5959C6.02771 27.8005 5.91277 28.078 5.91277 28.3673C5.91064 28.5433 5.95586 28.7166 6.04368 28.8691C5.86745 28.7778 5.71946 28.6402 5.61566 28.471C5.51185 28.3018 5.45616 28.1076 5.45459 27.9091C5.45459 27.6198 5.56952 27.3423 5.77411 27.1377C5.9787 26.9331 6.25617 26.8182 6.5455 26.8182H17.4546C17.6531 26.8198 17.8473 26.8755 18.0165 26.9793C18.1857 27.0831 18.3233 27.231 18.4146 27.4073Z" fill="#D7E2F2"/>
</svg>
