<svg width="31" height="31" viewBox="0 0 31 31" fill="none" xmlns="http://www.w3.org/2000/svg">
<circle cx="15.5" cy="15.5" r="15.5" fill="#286BEC"/>
<g clip-path="url(#clip0_344_2092)">
<path d="M25.1667 20.8333C25.1667 21.2754 24.9911 21.6993 24.6785 22.0118C24.366 22.3244 23.9421 22.5 23.5 22.5H8.50004C8.05801 22.5 7.63409 22.3244 7.32153 22.0118C7.00897 21.6993 6.83337 21.2754 6.83337 20.8333V11.6667C6.83337 11.2246 7.00897 10.8007 7.32153 10.4882C7.63409 10.1756 8.05801 10 8.50004 10H11.8334L13.5 7.5H18.5L20.1667 10H23.5C23.9421 10 24.366 10.1756 24.6785 10.4882C24.9911 10.8007 25.1667 11.2246 25.1667 11.6667V20.8333Z" stroke="white" stroke-width="1.75" stroke-linecap="round" stroke-linejoin="round"/>
<path d="M16 19.1667C17.8409 19.1667 19.3333 17.6743 19.3333 15.8333C19.3333 13.9924 17.8409 12.5 16 12.5C14.159 12.5 12.6666 13.9924 12.6666 15.8333C12.6666 17.6743 14.159 19.1667 16 19.1667Z" stroke="white" stroke-width="1.75" stroke-linecap="round" stroke-linejoin="round"/>
</g>
<defs>
<clipPath id="clip0_344_2092">
<rect width="20" height="20" fill="white" transform="translate(6 5)"/>
</clipPath>
</defs>
</svg>
