<svg width="34" height="34" viewBox="0 0 34 34" fill="none" xmlns="http://www.w3.org/2000/svg">
<path d="M4.11566 14.6698C4.26081 11.3502 5.68168 8.21462 8.08206 5.9169C10.4824 3.61919 13.6771 2.33664 16.9999 2.33664C20.3227 2.33664 23.5174 3.61919 25.9177 5.9169C28.3181 8.21462 29.739 11.3502 29.8841 14.6698C29.888 14.8228 29.9514 14.9681 30.0609 15.0749C30.1705 15.1817 30.3174 15.2414 30.4703 15.2414H31.6551C31.6551 11.3546 30.111 7.62699 27.3627 4.87861C24.6143 2.13023 20.8867 0.586212 16.9999 0.586212C13.1131 0.586212 9.38551 2.13023 6.63713 4.87861C3.88875 7.62699 2.34473 11.3546 2.34473 15.2414H3.5318C3.68435 15.2408 3.83069 15.1808 3.9397 15.0741C4.04872 14.9674 4.11184 14.8223 4.11566 14.6698Z" fill="#FB6AFE"/>
<path d="M1.17241 32.2414H3.51724V22.8621H1.17241C0.86147 22.8621 0.563262 22.9856 0.343392 23.2055C0.123522 23.4253 0 23.7235 0 24.0345V31.069C0 31.3799 0.123522 31.6781 0.343392 31.898C0.563262 32.1179 0.86147 32.2414 1.17241 32.2414Z" fill="#FEA2FF"/>
<path d="M3.51709 32.2414V32.8276C3.51709 33.1385 3.64061 33.4367 3.86048 33.6566C4.08035 33.8765 4.37856 34 4.6895 34H8.20675C8.51769 34 8.8159 33.8765 9.03577 33.6566C9.25564 33.4367 9.37916 33.1385 9.37916 32.8276V22.2759C9.37916 21.9649 9.25564 21.6667 9.03577 21.4468C8.8159 21.227 8.51769 21.1035 8.20675 21.1035H4.6895C4.37856 21.1035 4.08035 21.227 3.86048 21.4468C3.64061 21.6667 3.51709 21.9649 3.51709 22.2759V32.2414Z" fill="#FB6AFE"/>
<path d="M3.51719 22.2759V19.931C3.51719 19.7756 3.45543 19.6265 3.34549 19.5165C3.23556 19.4066 3.08646 19.3448 2.93098 19.3448H1.75857C1.6031 19.3448 1.45399 19.4066 1.34406 19.5165C1.23412 19.6265 1.17236 19.7756 1.17236 19.931V22.8621H3.51719V22.2759Z" fill="#BA52BC"/>
<path d="M30.4829 32.2414H32.8277C33.1387 32.2414 33.4369 32.1179 33.6568 31.898C33.8766 31.6781 34.0002 31.3799 34.0002 31.069V24.0345C34.0002 23.7235 33.8766 23.4253 33.6568 23.2055C33.4369 22.9856 33.1387 22.8621 32.8277 22.8621H30.4829V32.2414Z" fill="#FEA2FF"/>
<path d="M30.4827 22.2759C30.4827 21.9649 30.3592 21.6667 30.1393 21.4468C29.9194 21.227 29.6212 21.1035 29.3103 21.1035H25.793C25.4821 21.1035 25.1839 21.227 24.964 21.4468C24.7441 21.6667 24.6206 21.9649 24.6206 22.2759V32.8276C24.6206 33.1385 24.7441 33.4367 24.964 33.6566C25.1839 33.8765 25.4821 34 25.793 34H29.3103C29.6212 34 29.9194 33.8765 30.1393 33.6566C30.3592 33.4367 30.4827 33.1385 30.4827 32.8276V22.2759Z" fill="#FB6AFE"/>
<path d="M30.4829 19.931V22.8621H32.8277V19.931C32.8277 19.7756 32.766 19.6265 32.656 19.5165C32.5461 19.4066 32.397 19.3448 32.2415 19.3448H31.0691C30.9136 19.3448 30.7645 19.4066 30.6546 19.5165C30.5447 19.6265 30.4829 19.7756 30.4829 19.931Z" fill="#BA52BC"/>
<path d="M32.2415 19.3448H31.0691V15.2414C31.0691 11.5101 29.5869 7.93156 26.9484 5.29312C24.31 2.65468 20.7315 1.17241 17.0002 1.17241C13.2688 1.17241 9.69035 2.65468 7.05191 5.29312C4.41346 7.93156 2.9312 11.5101 2.9312 15.2414V19.3448H1.75879V15.2414C1.75879 11.1991 3.36457 7.32241 6.22289 4.4641C9.0812 1.60578 12.9579 0 17.0002 0C21.0424 0 24.9191 1.60578 27.7775 4.4641C30.6358 7.32241 32.2415 11.1991 32.2415 15.2414V19.3448Z" fill="#FEA2FF"/>
</svg>
