<svg width="24" height="33" viewBox="0 0 24 33" fill="none" xmlns="http://www.w3.org/2000/svg">
<path d="M23.6836 6.86184L17.1382 0.316382C17.0362 0.215275 16.9154 0.135284 16.7824 0.0809951C16.6495 0.0267064 16.5072 -0.000811831 16.3636 1.82338e-05H3.27273C2.40475 1.82338e-05 1.57232 0.344822 0.95856 0.958578C0.344804 1.57233 0 2.40476 0 3.27275V29.4546C0 30.3225 0.344804 31.155 0.95856 31.7687C1.57232 32.3825 2.40475 32.7273 3.27273 32.7273H20.7273C21.5953 32.7273 22.4277 32.3825 23.0414 31.7687C23.6552 31.155 24 30.3225 24 29.4546V7.63638C24.0008 7.49281 23.9733 7.35049 23.919 7.21758C23.8647 7.08466 23.7847 6.96377 23.6836 6.86184Z" fill="#24BBE2"/>
<path d="M17.138 0.316382C17.0361 0.215275 16.9152 0.135284 16.7823 0.0809951C16.6493 0.0267064 16.507 -0.000811831 16.3635 1.82338e-05H15.2725V7.25456C15.2754 7.64427 15.4315 8.01721 15.7071 8.29278C15.9826 8.56836 16.3556 8.72444 16.7453 8.72729H23.9998V7.63638C24.0006 7.49281 23.9731 7.35049 23.9188 7.21758C23.8646 7.08466 23.7846 6.96377 23.6835 6.86184L17.138 0.316382ZM17.6289 17.7273H6.71982C6.43049 17.7273 6.15301 17.6124 5.94843 17.4078C5.74384 17.2032 5.62891 16.9257 5.62891 16.6364C5.62891 16.3471 5.74384 16.0696 5.94843 15.865C6.15301 15.6604 6.43049 15.5455 6.71982 15.5455H17.6289C17.9182 15.5455 18.1957 15.6604 18.4003 15.865C18.6049 16.0696 18.7198 16.3471 18.7198 16.6364C18.7198 16.9257 18.6049 17.2032 18.4003 17.4078C18.1957 17.6124 17.9182 17.7273 17.6289 17.7273ZM17.6289 23.1818H6.71982C6.43049 23.1818 6.15301 23.0669 5.94843 22.8623C5.74384 22.6577 5.62891 22.3803 5.62891 22.0909C5.62891 21.8016 5.74384 21.5241 5.94843 21.3195C6.15301 21.115 6.43049 21 6.71982 21H17.6289C17.9182 21 18.1957 21.115 18.4003 21.3195C18.6049 21.5241 18.7198 21.8016 18.7198 22.0909C18.7198 22.3803 18.6049 22.6577 18.4003 22.8623C18.1957 23.0669 17.9182 23.1818 17.6289 23.1818ZM17.6289 28.6364H6.71982C6.43049 28.6364 6.15301 28.5215 5.94843 28.3169C5.74384 28.1123 5.62891 27.8348 5.62891 27.5455C5.62891 27.2561 5.74384 26.9787 5.94843 26.7741C6.15301 26.5695 6.43049 26.4546 6.71982 26.4546H17.6289C17.9182 26.4546 18.1957 26.5695 18.4003 26.7741C18.6049 26.9787 18.7198 27.2561 18.7198 27.5455C18.7198 27.8348 18.6049 28.1123 18.4003 28.3169C18.1957 28.5215 17.9182 28.6364 17.6289 28.6364Z" fill="#A2E7FC"/>
<path d="M17.4546 17.4546H6.5455C6.25617 17.4546 5.9787 17.3396 5.77411 17.135C5.56952 16.9304 5.45459 16.653 5.45459 16.3636C5.45459 16.0743 5.56952 15.7968 5.77411 15.5923C5.9787 15.3877 6.25617 15.2727 6.5455 15.2727H17.4546C17.7439 15.2727 18.0214 15.3877 18.226 15.5923C18.4306 15.7968 18.5455 16.0743 18.5455 16.3636C18.5455 16.653 18.4306 16.9304 18.226 17.135C18.0214 17.3396 17.7439 17.4546 17.4546 17.4546ZM17.4546 22.9091H6.5455C6.25617 22.9091 5.9787 22.7942 5.77411 22.5896C5.56952 22.385 5.45459 22.1075 5.45459 21.8182C5.45459 21.5289 5.56952 21.2514 5.77411 21.0468C5.9787 20.8422 6.25617 20.7273 6.5455 20.7273H17.4546C17.7439 20.7273 18.0214 20.8422 18.226 21.0468C18.4306 21.2514 18.5455 21.5289 18.5455 21.8182C18.5455 22.1075 18.4306 22.385 18.226 22.5896C18.0214 22.7942 17.7439 22.9091 17.4546 22.9091ZM17.4546 28.3636H6.5455C6.25617 28.3636 5.9787 28.2487 5.77411 28.0441C5.56952 27.8395 5.45459 27.5621 5.45459 27.2727C5.45459 26.9834 5.56952 26.7059 5.77411 26.5013C5.9787 26.2968 6.25617 26.1818 6.5455 26.1818H17.4546C17.7439 26.1818 18.0214 26.2968 18.226 26.5013C18.4306 26.7059 18.5455 26.9834 18.5455 27.2727C18.5455 27.5621 18.4306 27.8395 18.226 28.0441C18.0214 28.2487 17.7439 28.3636 17.4546 28.3636Z" fill="#75DEFA"/>
<path d="M18.4146 15.8618C18.2621 15.774 18.0888 15.7288 17.9128 15.7309H7.00368C6.71435 15.7309 6.43688 15.8459 6.23229 16.0504C6.02771 16.255 5.91277 16.5325 5.91277 16.8218C5.91064 16.9978 5.95586 17.1711 6.04368 17.3236C5.86745 17.2324 5.71946 17.0947 5.61566 16.9256C5.51185 16.7564 5.45616 16.5621 5.45459 16.3636C5.45459 16.0743 5.56952 15.7968 5.77411 15.5923C5.9787 15.3877 6.25617 15.2727 6.5455 15.2727H17.4546C17.6531 15.2743 17.8473 15.33 18.0165 15.4338C18.1857 15.5376 18.3233 15.6856 18.4146 15.8618ZM18.4146 21.3164C18.2621 21.2285 18.0888 21.1833 17.9128 21.1855H7.00368C6.71435 21.1855 6.43688 21.3004 6.23229 21.505C6.02771 21.7096 5.91277 21.987 5.91277 22.2764C5.91064 22.4524 5.95586 22.6257 6.04368 22.7782C5.86745 22.6869 5.71946 22.5493 5.61566 22.3801C5.51185 22.2109 5.45616 22.0167 5.45459 21.8182C5.45459 21.5289 5.56952 21.2514 5.77411 21.0468C5.9787 20.8422 6.25617 20.7273 6.5455 20.7273H17.4546C17.6531 20.7289 17.8473 20.7845 18.0165 20.8883C18.1857 20.9922 18.3233 21.1401 18.4146 21.3164ZM18.4146 26.7709C18.2621 26.6831 18.0888 26.6379 17.9128 26.64H7.00368C6.71435 26.64 6.43688 26.7549 6.23229 26.9595C6.02771 27.1641 5.91277 27.4416 5.91277 27.7309C5.91064 27.9069 5.95586 28.0802 6.04368 28.2327C5.86745 28.1414 5.71946 28.0038 5.61566 27.8346C5.51185 27.6655 5.45616 27.4712 5.45459 27.2727C5.45459 26.9834 5.56952 26.7059 5.77411 26.5013C5.9787 26.2968 6.25617 26.1818 6.5455 26.1818H17.4546C17.6531 26.1834 17.8473 26.2391 18.0165 26.3429C18.1857 26.4467 18.3233 26.5947 18.4146 26.7709Z" fill="#D7E2F2"/>
</svg>
