<svg width="27" height="33" viewBox="0 0 27 33" fill="none" xmlns="http://www.w3.org/2000/svg">
<path d="M14.2729 16.6858C14.2729 16.1009 13.8671 15.7524 13.151 15.7524C12.8588 15.7524 12.6606 15.7809 12.5571 15.809V17.6844C12.6799 17.7129 12.831 17.7221 13.0378 17.7221C13.8015 17.7224 14.2728 17.3362 14.2728 16.6858L14.2729 16.6858Z" fill="white"/>
<path d="M8.79728 16.6858C8.79728 16.1009 8.39123 15.7524 7.67537 15.7524C7.38317 15.7524 7.18498 15.7809 7.08154 15.809V17.6844C7.20383 17.7129 7.35464 17.7221 7.56225 17.7221C8.32526 17.7224 8.79726 17.3362 8.79726 16.6858L8.79728 16.6858Z" fill="white"/>
<path d="M18.4523 1.0031C17.6766 0.227709 17.1267 0 16.0306 0H2.128C0.600261 0 0 0.600268 0 2.128V29.876C0 31.404 0.600267 32.004 2.128 32.004H24.5414C26.0694 32.004 26.6694 31.4038 26.6694 29.876V10.6388C26.6694 9.5422 26.4415 8.99281 25.6663 8.21716L18.4523 1.0031ZM24.8092 29.5754C24.8092 29.9829 24.6492 30.1426 24.2417 30.1426H2.42895C2.02141 30.1426 1.86143 29.9829 1.86143 29.5754V22.6914H24.8089V29.5754H24.8092ZM5.65838 21.069V14.8001C6.10114 14.7247 6.72346 14.6681 7.59982 14.6681C8.48608 14.6681 9.11758 14.8378 9.54176 15.1774C9.94706 15.4978 10.2206 16.0259 10.2206 16.648C10.2206 17.2699 10.013 17.7977 9.63599 18.1561C9.14585 18.618 8.42029 18.8256 7.5715 18.8256C7.38298 18.8256 7.21332 18.8159 7.08136 18.7971V21.0689L5.65833 21.0692L5.65838 21.069ZM11.1345 21.069V14.8001C11.5772 14.7247 12.1991 14.6681 13.0764 14.6681C13.9622 14.6681 14.5937 14.8378 15.0176 15.1774C15.4236 15.4978 15.6967 16.0259 15.6967 16.648C15.6967 17.2699 15.4893 17.7977 15.1121 18.1561C14.6217 18.618 13.8959 18.8256 13.0476 18.8256C12.8588 18.8256 12.6891 18.8159 12.5572 18.7971V21.0689L11.1344 21.0692L11.1345 21.069ZM16.1288 15.922V14.7155H21.0118V15.922H19.2775L19.2778 21.069H17.8351V15.922H16.1288ZM24.8092 13.0454H1.86174V2.42829C1.86174 2.02075 2.02148 1.86101 2.42927 1.86101H16.5986C16.802 1.86101 16.8823 1.94112 16.8823 2.14452V7.66028C16.8823 9.18802 17.4826 9.78828 19.0098 9.78828H24.5256C24.7292 9.78828 24.8093 9.86864 24.8093 10.072L24.8092 13.0454Z" fill="white"/>
</svg>
