<svg width="28" height="34" viewBox="0 0 28 34" fill="none" xmlns="http://www.w3.org/2000/svg">
<path d="M7.10716 19.53C7.10716 18.7318 6.53716 18.2379 5.5488 18.2379C5.13071 18.2379 4.86481 18.2758 4.71265 18.314V20.9365C4.86456 20.9744 5.09283 20.9744 5.35873 20.9744C6.46107 20.9744 7.10719 20.4423 7.10719 19.5301L7.10716 19.53Z" fill="white"/>
<path d="M13.2648 18.2758C12.8088 18.2758 12.5426 18.3137 12.3525 18.3519V24.0909C12.5045 24.1288 12.8085 24.1288 13.0365 24.1288C14.8229 24.1288 16.0011 23.1407 16.0011 21.0503C16.0392 19.2642 14.9751 18.2759 13.2648 18.2759L13.2648 18.2758Z" fill="white"/>
<path d="M27.2511 10.1423L16.0391 0.754612C15.8871 0.6027 15.6589 0.526611 15.4309 0.526611H3.4587C1.55835 0.526611 0 2.31294 0 4.51741V29.602C0 31.8064 1.55835 33.5928 3.4587 33.5928H24.0965C25.9968 33.5928 27.5552 31.8064 27.5552 29.602V10.8646C27.5933 10.5987 27.4412 10.3325 27.2511 10.1424L27.2511 10.1423ZM25.693 29.6019C25.693 30.7421 24.9708 31.6923 24.1347 31.6923L3.4589 31.6921C2.62274 31.6921 1.90054 30.7419 1.90054 29.6016V27.2071H25.6549V29.6019L25.693 29.6019ZM2.77484 25.6111V16.9455C3.38301 16.8315 4.25711 16.7554 5.47347 16.7554C6.68982 16.7554 7.56392 16.9834 8.1721 17.4776C8.74209 17.9336 9.12227 18.6558 9.12227 19.492C9.12227 20.3661 8.81818 21.0883 8.32399 21.5824C7.64 22.2285 6.65161 22.4947 5.47347 22.4947C5.20729 22.4947 4.97929 22.4947 4.78948 22.4567V25.6113L2.77484 25.6111ZM10.3762 25.5732V16.9456C11.0984 16.8316 12.0486 16.7555 13.0749 16.7555C14.7472 16.7555 15.8114 17.0596 16.6854 17.7057C17.5977 18.3897 18.1677 19.4541 18.1677 21.0122C18.1677 22.6846 17.5595 23.8627 16.7234 24.5849C15.8111 25.345 14.405 25.7252 12.6565 25.7252C11.5923 25.6873 10.8702 25.6491 10.3762 25.5733V25.5732ZM24.5908 20.4421V22.0763H21.4362V25.6108H19.4598L19.4601 16.8312H24.8189V18.4653H21.4362V20.4797H24.5908L24.5908 20.4421ZM25.6932 15.1213H1.93882V4.51733C1.93882 3.37705 2.66102 2.42688 3.49717 2.42688H14.7472L14.747 11.4345H25.693L25.6932 15.1213Z" fill="white"/>
</svg>
