<svg width="26" height="32" viewBox="0 0 26 32" fill="none" xmlns="http://www.w3.org/2000/svg">
<path d="M17.9143 0.980436C17.1612 0.222564 16.6274 0 15.5632 0H2.06595C0.58276 0 0 0.586704 0 2.07991V29.2009C0 30.6942 0.582766 31.2809 2.06595 31.2809H23.8265C25.3099 31.2809 25.8925 30.6942 25.8925 29.2009L25.8922 10.3984C25.8922 9.32659 25.6709 8.7896 24.9184 8.03148L17.9143 0.980436ZM24.0859 28.9071C24.0859 29.3054 23.9306 29.4615 23.5349 29.4615H2.35813C1.96248 29.4615 1.80715 29.3052 1.80715 28.9071V22.1786H24.0856L24.0859 28.9071ZM4.39483 20.4675V14.5173C4.89476 14.4363 5.54642 14.3915 6.23392 14.3915C7.37707 14.3915 8.11826 14.5983 8.69843 15.0386C9.32361 15.506 9.71612 16.252 9.71612 17.3216C9.71612 18.481 9.29638 19.2812 8.716 19.7753C8.0817 20.3058 7.11796 20.5575 5.93968 20.5575C5.23387 20.5572 4.7339 20.5126 4.39483 20.4675V20.4675ZM10.3306 17.5104C10.3306 15.6948 11.4827 14.3371 13.2589 14.3371C15.1071 14.3371 16.1157 15.7304 16.1157 17.4023C16.1157 19.3889 14.9196 20.5933 13.1604 20.5933C11.375 20.5933 10.3306 19.2361 10.3306 17.5104ZM20.0883 19.4514C20.4989 19.4514 20.9545 19.3617 21.2227 19.2536L21.4279 20.3234C21.1777 20.4493 20.6152 20.5841 19.8831 20.5841C17.8027 20.5841 16.7311 19.2807 16.7311 17.5547C16.7311 15.4874 18.1955 14.3366 20.0177 14.3366C20.7223 14.3366 21.2583 14.4806 21.4994 14.6062L21.2229 15.694C20.9453 15.5771 20.5619 15.469 20.0798 15.469C18.9988 15.469 18.1596 16.1252 18.1596 17.4735C18.1598 18.6878 18.8746 19.4513 20.0882 19.4513L20.0883 19.4514ZM24.0863 12.7509H1.80789V2.37366C1.80789 1.97533 1.96322 1.8192 2.35887 1.8192H16.115C16.3125 1.8192 16.3905 1.89751 16.3905 2.09631V7.48744C16.3905 8.98065 16.9733 9.56735 18.456 9.56735H23.8109C24.0086 9.56735 24.0864 9.6459 24.0864 9.8447L24.0863 12.7509Z" fill="white"/>
<path d="M14.6783 17.447C14.6783 16.3594 14.1605 15.4246 13.2228 15.4246C12.3032 15.4246 11.7681 16.3056 11.7681 17.4829C11.7681 18.6694 12.3215 19.5053 13.2322 19.5053C14.1511 19.5053 14.6783 18.6243 14.6783 17.447Z" fill="white"/>
<path d="M6.37577 15.4423C6.07234 15.4423 5.87584 15.4695 5.75977 15.4961V19.46C5.87584 19.4872 6.06367 19.4872 6.23297 19.4872C7.4647 19.4961 8.26859 18.8132 8.26859 17.3656C8.27798 16.1075 7.54561 15.4423 6.37577 15.4423Z" fill="white"/>
</svg>
