<svg width="28" height="33" viewBox="0 0 28 33" fill="none" xmlns="http://www.w3.org/2000/svg">
<path d="M14.6061 16.6858C14.6061 16.1009 14.2003 15.7524 13.4842 15.7524C13.192 15.7524 12.9938 15.7809 12.8904 15.809V17.6844C13.0132 17.7129 13.1642 17.7221 13.3711 17.7221C14.1348 17.7224 14.6061 17.3362 14.6061 16.6858L14.6061 16.6858Z" fill="#FE8A58"/>
<path d="M9.13053 16.6858C9.13053 16.1009 8.72448 15.7524 8.00862 15.7524C7.71642 15.7524 7.51823 15.7809 7.41479 15.809V17.6844C7.53708 17.7129 7.68789 17.7221 7.89551 17.7221C8.65852 17.7224 9.13051 17.3362 9.13051 16.6858L9.13053 16.6858Z" fill="#FE8A58"/>
<path d="M18.7855 1.0031C18.0099 0.227709 17.46 0 16.3638 0H2.46125C0.933513 0 0.333252 0.600268 0.333252 2.128V29.876C0.333252 31.404 0.933519 32.004 2.46125 32.004H24.8747C26.4026 32.004 27.0027 31.4038 27.0027 29.876V10.6388C27.0027 9.5422 26.7747 8.99281 25.9996 8.21716L18.7855 1.0031ZM25.1425 29.5754C25.1425 29.9829 24.9825 30.1426 24.5749 30.1426H2.7622C2.35466 30.1426 2.19468 29.9829 2.19468 29.5754V22.6914H25.1421V29.5754H25.1425ZM5.99163 21.069V14.8001C6.4344 14.7247 7.05671 14.6681 7.93307 14.6681C8.81933 14.6681 9.45083 14.8378 9.87501 15.1774C10.2803 15.4978 10.5539 16.0259 10.5539 16.648C10.5539 17.2699 10.3463 17.7977 9.96925 18.1561C9.4791 18.618 8.75355 18.8256 7.90475 18.8256C7.71623 18.8256 7.54657 18.8159 7.41461 18.7971V21.0689L5.99158 21.0692L5.99163 21.069ZM11.4677 21.069V14.8001C11.9105 14.7247 12.5323 14.6681 13.4097 14.6681C14.2954 14.6681 14.927 14.8378 15.3508 15.1774C15.7569 15.4978 16.03 16.0259 16.03 16.648C16.03 17.2699 15.8226 17.7977 15.4453 18.1561C14.9549 18.618 14.2292 18.8256 13.3808 18.8256C13.1921 18.8256 13.0224 18.8159 12.8904 18.7971V21.0689L11.4677 21.0692L11.4677 21.069ZM16.4621 15.922V14.7155H21.3451V15.922H19.6108L19.611 21.069H18.1684V15.922H16.4621ZM25.1425 13.0454H2.195V2.42829C2.195 2.02075 2.35473 1.86101 2.76252 1.86101H16.9318C17.1352 1.86101 17.2156 1.94112 17.2156 2.14452V7.66028C17.2156 9.18802 17.8158 9.78828 19.3431 9.78828H24.8588C25.0625 9.78828 25.1426 9.86864 25.1426 10.072L25.1425 13.0454Z" fill="#FE8A58"/>
</svg>
