<svg width="26" height="32" viewBox="0 0 26 32" fill="none" xmlns="http://www.w3.org/2000/svg">
<path d="M17.9143 0.980436C17.1612 0.222564 16.6274 0 15.5632 0H2.06595C0.58276 0 0 0.586704 0 2.07991V29.2009C0 30.6942 0.582766 31.2809 2.06595 31.2809H23.8265C25.3099 31.2809 25.8925 30.6942 25.8925 29.2009L25.8922 10.3984C25.8922 9.32659 25.6709 8.7896 24.9184 8.03148L17.9143 0.980436ZM24.0859 28.9071C24.0859 29.3054 23.9306 29.4615 23.5349 29.4615H2.35813C1.96248 29.4615 1.80715 29.3052 1.80715 28.9071V22.1786H24.0856L24.0859 28.9071ZM24.0863 12.7509H1.80789V2.37366C1.80789 1.97533 1.96322 1.8192 2.35887 1.8192H16.115C16.3125 1.8192 16.3905 1.89751 16.3905 2.09631V7.48744C16.3905 8.98065 16.9733 9.56735 18.456 9.56735H23.8109C24.0086 9.56735 24.0864 9.6459 24.0864 9.8447L24.0863 12.7509Z" fill="white"/>
<path d="M14.6783 17.447C14.6783 16.3594 14.1605 15.4246 13.2228 15.4246C12.3032 15.4246 11.7681 16.3056 11.7681 17.4829C11.7681 18.6694 12.3215 19.5053 13.2322 19.5053C14.1511 19.5053 14.6783 18.6243 14.6783 17.447Z" fill="white"/>
<path d="M6.37577 15.4423C6.07234 15.4423 5.87584 15.4695 5.75977 15.4961V19.46C5.87584 19.4872 6.06367 19.4872 6.23297 19.4872C7.4647 19.4961 8.26859 18.8132 8.26859 17.3656C8.27798 16.1075 7.54564 15.4423 6.3758 15.4423L6.37577 15.4423Z" fill="white"/>
</svg>
