<svg width="37" height="38" viewBox="0 0 37 38" fill="none" xmlns="http://www.w3.org/2000/svg">
<path fill-rule="evenodd" clip-rule="evenodd" d="M2.55057 10.0882C3.37079 10.9084 4.46443 11.7286 5.55806 12.5488C5.83147 12.8222 8.29214 14.7361 8.56555 15.0095C9.11237 13.0957 10.206 11.7286 11.2996 10.635C12.3933 9.54134 13.7603 8.44771 15.4008 7.9009C18.9551 6.53385 23.0562 7.35408 25.7903 9.54134C26.0637 9.81475 26.0637 9.81475 26.3371 10.0882L31.5318 4.8934C31.2584 4.62 30.4382 3.79977 29.8914 3.52636C23.3296 -1.39498 14.0337 -1.12158 7.47192 4.07318C6.37828 4.8934 5.55806 5.71363 4.73783 6.80726C4.19102 7.35408 2.82398 9.26794 2.55057 10.0882Z" fill="#E43E2B"/>
<path fill-rule="evenodd" clip-rule="evenodd" d="M2.55057 26.7661C2.55057 27.5863 3.91761 29.5001 4.46443 30.3204C6.9251 33.3279 10.4794 35.5151 14.5805 36.6088C18.9551 37.7024 24.4232 37.1556 28.2509 34.9683C28.7978 34.6949 30.985 33.3279 31.2584 32.781L27.7041 29.7736C27.4307 29.7736 27.1573 29.5001 26.8839 29.2267L26.6105 28.9533C26.3371 28.9533 26.3371 28.6799 26.0637 28.6799C25.7903 28.4065 25.7903 28.1331 25.2435 28.1331C24.97 28.4065 24.6966 28.6799 24.1498 28.6799C20.5955 30.5938 15.9476 30.3204 12.6667 27.8597C11.8464 27.0395 11.8464 27.0395 11.0262 26.2192C10.4794 25.9458 9.93259 25.1256 9.65918 24.5788C9.11237 23.7586 8.56555 22.3915 8.56555 22.1181C7.47192 22.9384 6.37828 23.7586 5.55806 24.5788C5.01124 24.8522 2.82398 26.7661 2.55057 26.7661Z" fill="#2BA24C"/>
<path fill-rule="evenodd" clip-rule="evenodd" d="M25.2434 28.1331C25.7903 28.1331 25.7903 28.4065 26.0637 28.6799C26.3371 28.6799 26.3371 28.9533 26.6105 28.9533L26.8839 29.2267C27.1573 29.5001 27.4307 29.7736 27.7041 29.7736L31.2584 32.781C32.0786 32.2342 33.7191 30.3204 33.9925 29.5001C34.8127 28.4065 35.3595 27.0395 35.9064 25.399C36.4532 24.032 36.7266 22.3915 37 20.4777C37 19.6574 37 15.8297 36.4532 15.0095H18.955V22.3915H29.0712C29.3446 23.2118 28.2509 25.1256 27.7041 25.6724C27.1573 26.4927 26.6105 27.0395 26.0637 27.5863C25.7903 27.8597 25.5168 28.1331 25.2434 28.1331Z" fill="#3C7CED"/>
<path fill-rule="evenodd" clip-rule="evenodd" d="M2.55056 26.7661C2.82397 26.7661 5.01124 24.8522 5.55805 24.5788C6.37828 23.7586 7.47191 22.9384 8.56554 22.1181C8.29213 21.2979 8.01873 20.7511 8.01873 18.5638C8.01873 17.4702 8.29213 15.8297 8.56554 15.0095C8.29213 14.7361 5.83146 12.8222 5.55805 12.5488C4.46442 11.7286 3.37079 10.9084 2.55056 10.0882C2.00375 10.635 1.18352 13.0957 0.910112 13.9159C0.363296 16.9234 0.363296 20.2043 0.910112 23.2118C1.18352 24.032 2.00375 26.4927 2.55056 26.7661Z" fill="#F0B401"/>
</svg>
