<svg width="367" height="347" viewBox="0 0 367 347" fill="none" xmlns="http://www.w3.org/2000/svg">
<path d="M313 173C313 194.484 307.468 214.684 297.749 232.258C294.395 238.322 290.543 244.076 286.241 249.461C281.651 255.217 276.551 260.555 271.01 265.406C266.619 269.255 261.95 272.795 257.039 275.992C251.571 279.559 245.8 282.701 239.775 285.379C234.199 287.859 228.405 289.939 222.427 291.577C211.943 294.461 200.902 296 189.5 296C164.993 296 142.15 288.89 122.941 276.628C115.686 271.993 108.947 266.626 102.834 260.628C99.4987 257.356 96.349 253.896 93.4032 250.265C83.7949 238.43 76.3495 224.782 71.6637 209.918C71.3195 208.84 70.9961 207.757 70.6838 206.668C67.6335 195.968 66 184.673 66 173C66 171.949 66.0149 170.898 66.0408 169.853C67.7181 103.377 122.349 50 189.5 50C257.706 50 313 105.07 313 173Z" fill="url(#paint0_linear_123_2)" fill-opacity="0.12"/>
<path d="M277.08 325.398L277.515 323.976C280.432 324.351 283.435 324.199 286.373 323.474L286.906 324.472C288.051 326.616 290.604 327.712 292.89 326.873C294.41 326.314 295.448 325.121 295.871 323.74C296.232 322.559 296.142 321.24 295.513 320.065L295.121 319.329C297.737 317.371 299.866 314.95 301.452 312.243L301.721 312.325C304.05 313.033 306.631 312.008 307.653 309.803C308.334 308.336 308.223 306.759 307.542 305.483C306.961 304.393 305.963 303.525 304.684 303.137L304.574 303.103C304.996 299.835 304.752 296.458 303.775 293.184C306.091 291.916 306.961 289.021 305.715 286.688C305.087 285.511 304.041 284.701 302.857 284.34C301.691 283.986 300.393 284.068 299.228 284.668C297.05 282.033 294.378 279.946 291.424 278.471L291.441 278.416C292.062 276.382 291.345 274.116 289.558 272.956C287.911 271.885 286.033 271.912 284.557 272.695C283.465 273.276 282.595 274.271 282.205 275.547L282.08 275.957C278.944 275.76 275.741 276.171 272.653 277.244L272.342 276.662C271.087 274.31 268.163 273.267 265.786 274.483C263.378 275.715 262.455 278.671 263.722 281.046L264.324 282.174C262.082 284.202 260.279 286.603 258.964 289.227L257.539 288.793C254.984 288.016 252.177 289.341 251.359 291.877C250.53 294.448 251.972 297.188 254.551 297.973L256.444 298.549C256.268 301.322 256.572 304.147 257.393 306.898L255.516 307.896C253.135 309.161 252.248 312.128 253.558 314.491C254.85 316.823 257.86 317.585 260.217 316.332L261.94 315.417C263.77 317.632 265.951 319.46 268.354 320.861L267.777 322.749C266.99 325.323 268.464 328.046 271.065 328.794C273.632 329.532 276.301 327.947 277.08 325.398ZM295.731 300.413C295.728 300.526 295.72 300.639 295.715 300.752C295.711 300.847 295.709 300.942 295.702 301.037C295.694 301.147 295.683 301.258 295.673 301.368C295.664 301.461 295.658 301.555 295.648 301.648C295.636 301.759 295.62 301.87 295.605 301.98C295.593 302.072 295.583 302.164 295.57 302.256C295.552 302.367 295.532 302.478 295.513 302.589C295.498 302.679 295.484 302.77 295.467 302.859C295.445 302.974 295.419 303.088 295.395 303.202C295.377 303.287 295.361 303.372 295.34 303.457C295.311 303.581 295.278 303.703 295.246 303.826C295.227 303.901 295.21 303.976 295.189 304.05C295.148 304.196 295.104 304.341 295.059 304.487C295.043 304.536 295.031 304.587 295.014 304.635C294.952 304.829 294.886 305.022 294.816 305.214C294.799 305.261 294.78 305.308 294.762 305.355C294.708 305.499 294.654 305.643 294.596 305.785C294.572 305.842 294.545 305.899 294.521 305.956C294.466 306.086 294.41 306.217 294.352 306.345C294.318 306.419 294.281 306.491 294.246 306.564C294.193 306.675 294.141 306.787 294.085 306.897C294.045 306.974 294.003 307.05 293.962 307.126C293.906 307.229 293.853 307.335 293.795 307.438C293.749 307.519 293.701 307.598 293.654 307.678C293.598 307.775 293.542 307.872 293.483 307.967C293.433 308.049 293.379 308.129 293.327 308.21C293.268 308.302 293.21 308.394 293.149 308.485C293.095 308.565 293.038 308.643 292.983 308.722C292.92 308.811 292.858 308.902 292.793 308.991C292.735 309.071 292.673 309.148 292.613 309.227C292.545 309.314 292.48 309.404 292.41 309.49C291.919 310.102 291.378 310.679 290.787 311.214C290.656 311.334 290.516 311.447 290.38 311.562C290.278 311.648 290.18 311.738 290.076 311.821C289.934 311.935 289.784 312.041 289.638 312.151C289.534 312.229 289.434 312.309 289.328 312.383C289.161 312.501 288.986 312.611 288.813 312.723C288.721 312.782 288.632 312.846 288.538 312.904C288.267 313.07 287.99 313.229 287.705 313.38C287.473 313.503 287.239 313.62 287.004 313.73C286.937 313.761 286.868 313.788 286.8 313.819C286.632 313.895 286.463 313.971 286.294 314.04C286.201 314.078 286.107 314.11 286.014 314.146C285.868 314.202 285.722 314.26 285.575 314.312C285.471 314.348 285.367 314.379 285.262 314.413C285.124 314.457 284.988 314.505 284.851 314.545C284.746 314.575 284.639 314.601 284.533 314.63C284.396 314.667 284.259 314.706 284.12 314.74C284.01 314.766 283.899 314.787 283.787 314.811C283.653 314.84 283.52 314.871 283.386 314.897C283.273 314.918 283.16 314.934 283.047 314.952C282.915 314.974 282.782 314.998 282.649 315.017C282.535 315.032 282.421 315.042 282.306 315.056C282.172 315.071 282.036 315.09 281.901 315.101C281.337 315.15 280.771 315.167 280.209 315.152C280.096 315.15 279.982 315.142 279.869 315.137C279.774 315.133 279.679 315.13 279.584 315.123C279.473 315.116 279.362 315.105 279.252 315.094C279.158 315.086 279.065 315.08 278.971 315.07C278.86 315.058 278.749 315.042 278.638 315.027C278.546 315.015 278.454 315.005 278.362 314.991C278.245 314.974 278.128 314.952 278.012 314.932C277.928 314.917 277.842 314.905 277.757 314.888C277.637 314.865 277.518 314.838 277.397 314.813C277.317 314.796 277.237 314.78 277.157 314.762C277.033 314.733 276.91 314.7 276.787 314.668C276.712 314.648 276.637 314.631 276.563 314.611C276.416 314.571 276.271 314.526 276.125 314.481C276.075 314.466 276.025 314.453 275.976 314.437C275.782 314.375 275.588 314.309 275.396 314.239C275.338 314.218 275.28 314.193 275.221 314.171C275.089 314.121 274.955 314.072 274.824 314.018C274.752 313.989 274.683 313.956 274.611 313.926C274.494 313.876 274.376 313.827 274.26 313.775C274.191 313.743 274.125 313.709 274.057 313.676C273.94 313.621 273.823 313.566 273.708 313.507C273.64 313.473 273.574 313.436 273.506 313.4C273.392 313.34 273.278 313.281 273.165 313.218C273.092 313.177 273.02 313.133 272.949 313.091C272.844 313.031 272.739 312.971 272.635 312.908C272.559 312.861 272.484 312.811 272.409 312.763C272.311 312.701 272.212 312.64 272.115 312.575C272.04 312.525 271.968 312.471 271.894 312.419C271.799 312.353 271.703 312.288 271.61 312.22C271.534 312.165 271.46 312.106 271.384 312.049C271.292 311.979 271.199 311.91 271.108 311.838C270.789 311.584 270.48 311.315 270.179 311.032C270.008 310.871 269.848 310.696 269.684 310.526C269.567 310.405 269.444 310.29 269.331 310.165C269.166 309.983 269.013 309.787 268.857 309.596C268.756 309.472 268.649 309.357 268.552 309.23C268.388 309.016 268.237 308.789 268.084 308.565C268.005 308.449 267.919 308.34 267.842 308.222C267.618 307.874 267.407 307.514 267.208 307.143C267.109 306.957 267.013 306.77 266.923 306.582C266.895 306.524 266.87 306.465 266.844 306.407C266.782 306.276 266.721 306.146 266.664 306.014C266.634 305.945 266.607 305.876 266.578 305.807C266.528 305.685 266.477 305.564 266.429 305.443C266.399 305.363 266.371 305.282 266.342 305.202C266.301 305.089 266.259 304.978 266.22 304.866C266.19 304.779 266.165 304.691 266.138 304.604C266.103 304.498 266.068 304.392 266.036 304.285C266.01 304.195 265.987 304.104 265.962 304.013C265.934 303.909 265.903 303.805 265.877 303.701C265.854 303.61 265.835 303.518 265.813 303.426C265.79 303.322 265.764 303.217 265.742 303.114C265.722 303.018 265.706 302.923 265.688 302.828C265.668 302.723 265.647 302.619 265.629 302.515C265.562 302.109 265.511 301.703 265.477 301.296C265.468 301.179 265.462 301.061 265.455 300.944C265.45 300.852 265.442 300.76 265.438 300.668C265.434 300.555 265.433 300.442 265.431 300.328C265.43 300.235 265.426 300.143 265.426 300.05C265.426 299.935 265.431 299.82 265.433 299.705C265.435 299.615 265.435 299.525 265.439 299.435C265.444 299.32 265.453 299.205 265.46 299.091C265.466 299.001 265.47 298.911 265.477 298.822C265.486 298.707 265.5 298.592 265.512 298.477C265.521 298.389 265.528 298.299 265.539 298.212C265.553 298.098 265.571 297.983 265.587 297.869C265.6 297.781 265.611 297.692 265.626 297.604C265.645 297.485 265.669 297.367 265.691 297.249C265.707 297.167 265.72 297.084 265.738 297.002C265.764 296.872 265.796 296.744 265.825 296.614C265.842 296.545 265.855 296.475 265.873 296.406C265.923 296.209 265.976 296.012 266.033 295.816C266.053 295.745 266.078 295.674 266.099 295.604C266.138 295.48 266.174 295.356 266.215 295.233C266.241 295.157 266.27 295.082 266.296 295.006C266.337 294.89 266.377 294.773 266.422 294.657C266.454 294.572 266.49 294.488 266.524 294.403C266.566 294.298 266.607 294.194 266.65 294.09C266.686 294.005 266.725 293.924 266.763 293.84C266.809 293.737 266.854 293.634 266.903 293.531C266.941 293.451 266.983 293.372 267.022 293.292C267.073 293.189 267.123 293.085 267.177 292.983C267.222 292.898 267.27 292.815 267.316 292.732C267.369 292.636 267.42 292.54 267.475 292.446C267.523 292.363 267.574 292.282 267.624 292.201C267.682 292.105 267.739 292.007 267.8 291.912C268.102 291.439 268.432 290.981 268.787 290.54C268.873 290.433 268.964 290.33 269.054 290.226C269.127 290.14 269.199 290.052 269.274 289.967C269.365 289.865 269.461 289.766 269.556 289.667C269.633 289.586 269.706 289.503 269.784 289.424C269.883 289.325 269.986 289.23 270.086 289.133C270.166 289.057 270.243 288.979 270.324 288.904C270.426 288.811 270.533 288.722 270.638 288.631C270.723 288.557 270.807 288.481 270.895 288.408C271.005 288.317 271.119 288.231 271.232 288.144C271.319 288.076 271.404 288.005 271.493 287.939C271.619 287.844 271.75 287.755 271.881 287.665C271.961 287.608 272.038 287.551 272.12 287.496C272.275 287.392 272.436 287.294 272.596 287.194C272.656 287.157 272.713 287.117 272.774 287.082C272.996 286.948 273.224 286.82 273.456 286.696C273.74 286.546 274.028 286.404 274.317 286.273C274.413 286.23 274.511 286.193 274.608 286.152C274.802 286.068 274.996 285.983 275.192 285.909C275.303 285.867 275.415 285.833 275.527 285.793C275.71 285.729 275.893 285.661 276.077 285.604C276.202 285.565 276.327 285.535 276.452 285.499C276.628 285.45 276.803 285.396 276.979 285.353C277.754 285.162 278.536 285.036 279.318 284.971C279.43 284.962 279.541 284.957 279.654 284.95C279.752 284.944 279.85 284.937 279.948 284.932C280.059 284.928 280.169 284.927 280.28 284.925C280.376 284.924 280.471 284.92 280.567 284.92C280.678 284.92 280.789 284.924 280.9 284.926C280.995 284.928 281.089 284.928 281.184 284.932C281.301 284.937 281.417 284.946 281.533 284.954C281.622 284.96 281.71 284.963 281.798 284.97C281.918 284.98 282.039 284.994 282.158 285.006C282.242 285.015 282.326 285.022 282.41 285.032C282.533 285.047 282.656 285.067 282.78 285.085C282.859 285.097 282.938 285.106 283.018 285.119C283.146 285.14 283.274 285.165 283.402 285.189C283.475 285.203 283.548 285.215 283.622 285.23C283.752 285.256 283.881 285.288 284.01 285.318C284.08 285.334 284.15 285.348 284.219 285.365C284.417 285.415 284.615 285.468 284.811 285.525C284.854 285.537 284.897 285.552 284.939 285.565C285.092 285.61 285.245 285.656 285.396 285.707C285.472 285.732 285.547 285.761 285.623 285.787C285.74 285.828 285.857 285.868 285.973 285.913C286.058 285.945 286.143 285.981 286.228 286.015C286.333 286.056 286.438 286.097 286.542 286.141C286.625 286.176 286.708 286.215 286.792 286.253C286.895 286.299 286.999 286.344 287.102 286.392C287.184 286.432 287.264 286.473 287.345 286.514C287.448 286.565 287.55 286.614 287.651 286.667C287.737 286.712 287.821 286.762 287.906 286.809C288 286.86 288.096 286.911 288.189 286.964C288.275 287.014 288.359 287.067 288.445 287.119C288.538 287.175 288.632 287.23 288.724 287.288C289.525 287.796 290.281 288.382 290.982 289.042C291.149 289.2 291.306 289.371 291.467 289.537C291.587 289.662 291.714 289.78 291.831 289.908C291.993 290.089 292.144 290.282 292.3 290.472C292.402 290.597 292.51 290.715 292.608 290.844C292.776 291.063 292.932 291.296 293.089 291.528C293.164 291.637 293.245 291.74 293.317 291.852C293.541 292.2 293.753 292.56 293.952 292.932C294.051 293.117 294.146 293.304 294.236 293.492C294.266 293.554 294.293 293.617 294.322 293.679C294.381 293.806 294.44 293.931 294.496 294.059C294.528 294.133 294.556 294.208 294.587 294.282C294.636 294.399 294.685 294.514 294.73 294.632C294.763 294.717 294.792 294.802 294.822 294.887C294.862 294.994 294.903 295.101 294.938 295.209C294.969 295.298 294.996 295.388 295.024 295.478C295.057 295.582 295.092 295.686 295.123 295.791C295.148 295.878 295.17 295.964 295.194 296.052C295.224 296.16 295.255 296.267 295.282 296.375C295.305 296.465 295.324 296.556 295.344 296.647C295.369 296.752 295.395 296.857 295.417 296.962C295.436 297.054 295.452 297.146 295.469 297.238C295.489 297.346 295.512 297.453 295.529 297.561C295.691 298.514 295.755 299.467 295.731 300.413Z" fill="url(#paint1_linear_123_2)" stroke="white" stroke-miterlimit="10"/>
<path d="M314.563 282.113L314.768 281.443C316.143 281.62 317.558 281.547 318.944 281.206L319.194 281.677C319.734 282.688 320.938 283.204 322.015 282.809C322.731 282.545 323.221 281.983 323.42 281.332C323.59 280.775 323.547 280.154 323.251 279.599L323.066 279.253C324.3 278.329 325.303 277.188 326.051 275.912L326.179 275.95C327.276 276.285 328.493 275.801 328.975 274.762C329.296 274.07 329.244 273.326 328.923 272.724C328.648 272.21 328.179 271.801 327.576 271.618L327.524 271.602C327.722 270.061 327.607 268.469 327.147 266.926C328.238 266.327 328.648 264.962 328.061 263.863C327.765 263.308 327.272 262.926 326.713 262.756C326.163 262.589 325.552 262.628 325.003 262.911C323.976 261.669 322.717 260.685 321.324 259.99L321.332 259.964C321.625 259.005 321.286 257.937 320.445 257.39C319.668 256.886 318.782 256.898 318.087 257.268C317.572 257.542 317.162 258.011 316.979 258.612L316.92 258.805C315.442 258.713 313.931 258.907 312.475 259.412L312.329 259.137C311.737 258.028 310.358 257.537 309.238 258.109C308.103 258.69 307.667 260.084 308.265 261.203L308.549 261.735C307.491 262.691 306.642 263.823 306.022 265.06L305.35 264.856C304.145 264.489 302.822 265.115 302.436 266.31C302.045 267.522 302.725 268.814 303.941 269.184L304.834 269.455C304.751 270.762 304.894 272.094 305.28 273.392L304.396 273.862C303.274 274.459 302.856 275.857 303.473 276.971C304.082 278.071 305.501 278.43 306.613 277.839L307.425 277.408C308.288 278.452 309.315 279.314 310.449 279.974L310.177 280.864C309.806 282.078 310.501 283.362 311.727 283.714C312.938 284.062 314.196 283.316 314.563 282.113ZM323.355 270.335C323.353 270.451 323.341 270.565 323.332 270.68C323.326 270.759 323.325 270.838 323.316 270.917C323.303 271.033 323.283 271.148 323.265 271.263C323.253 271.338 323.245 271.414 323.231 271.489C323.206 271.619 323.173 271.748 323.141 271.876C323.126 271.934 323.116 271.993 323.1 272.051C323.048 272.236 322.99 272.419 322.924 272.599C322.917 272.619 322.908 272.638 322.9 272.657C322.84 272.818 322.776 272.977 322.705 273.133C322.676 273.195 322.642 273.255 322.611 273.317C322.556 273.428 322.503 273.54 322.442 273.649C322.4 273.723 322.353 273.794 322.307 273.867C322.251 273.959 322.198 274.053 322.138 274.143C322.087 274.218 322.03 274.289 321.976 274.362C321.914 274.448 321.855 274.534 321.789 274.617C321.558 274.905 321.303 275.178 321.024 275.429C320.963 275.485 320.898 275.538 320.835 275.59C320.786 275.632 320.739 275.675 320.689 275.715C320.623 275.768 320.554 275.817 320.486 275.868C320.436 275.905 320.387 275.944 320.336 275.981C320.262 276.033 320.184 276.082 320.108 276.131C320.059 276.163 320.013 276.196 319.964 276.226C319.837 276.304 319.705 276.379 319.571 276.451C319.353 276.567 319.13 276.67 318.906 276.762C318.834 276.791 318.761 276.811 318.689 276.838C318.535 276.895 318.382 276.953 318.225 276.999C318.133 277.027 318.04 277.043 317.947 277.067C317.81 277.101 317.674 277.14 317.535 277.165C317.434 277.185 317.332 277.193 317.229 277.208C317.098 277.227 316.967 277.25 316.835 277.261C316.569 277.284 316.302 277.292 316.038 277.285C315.922 277.282 315.808 277.271 315.692 277.262C315.613 277.256 315.533 277.255 315.454 277.246C315.338 277.233 315.222 277.213 315.106 277.194C315.031 277.182 314.955 277.175 314.881 277.161C314.75 277.136 314.62 277.103 314.491 277.071C314.434 277.056 314.376 277.046 314.318 277.031C314.132 276.98 313.949 276.921 313.768 276.856C313.745 276.847 313.722 276.836 313.699 276.828C313.542 276.769 313.386 276.707 313.234 276.637C313.165 276.606 313.1 276.569 313.034 276.536C312.928 276.483 312.821 276.433 312.718 276.375C312.649 276.337 312.584 276.292 312.517 276.251C312.418 276.192 312.318 276.135 312.223 276.071C312.155 276.025 312.09 275.973 312.023 275.926C311.931 275.859 311.837 275.795 311.748 275.724C311.598 275.604 311.451 275.477 311.31 275.344C311.232 275.27 311.158 275.19 311.083 275.112C311.025 275.053 310.966 274.997 310.91 274.936C310.836 274.854 310.768 274.766 310.697 274.68C310.646 274.618 310.593 274.559 310.544 274.495C310.463 274.389 310.387 274.276 310.311 274.165C310.277 274.117 310.242 274.071 310.209 274.02C310.103 273.856 310.004 273.687 309.91 273.512C309.816 273.336 309.731 273.159 309.653 272.98C309.626 272.918 309.605 272.855 309.581 272.792C309.534 272.674 309.484 272.557 309.444 272.438C309.42 272.366 309.402 272.294 309.381 272.222C309.347 272.111 309.311 272 309.283 271.888C309.263 271.811 309.251 271.732 309.234 271.654C309.211 271.546 309.185 271.438 309.167 271.329C309.135 271.138 309.112 270.946 309.095 270.755C309.086 270.642 309.085 270.531 309.082 270.419C309.079 270.335 309.071 270.252 309.071 270.167C309.071 270.053 309.08 269.94 309.085 269.826C309.089 269.747 309.089 269.667 309.095 269.588C309.106 269.463 309.124 269.34 309.141 269.216C309.15 269.149 309.154 269.082 309.165 269.014C309.194 268.836 309.232 268.659 309.274 268.483C309.277 268.472 309.279 268.461 309.281 268.449C309.327 268.263 309.381 268.078 309.442 267.896C309.458 267.849 309.478 267.805 309.494 267.758C309.543 267.623 309.591 267.488 309.647 267.356C309.675 267.291 309.709 267.228 309.738 267.164C309.79 267.053 309.839 266.943 309.895 266.834C309.933 266.764 309.976 266.697 310.016 266.627C310.073 266.527 310.126 266.426 310.189 266.329C310.331 266.106 310.486 265.89 310.654 265.682C310.738 265.578 310.833 265.48 310.924 265.38C310.991 265.306 311.054 265.228 311.124 265.156C311.222 265.059 311.328 264.968 311.431 264.876C311.504 264.81 311.572 264.741 311.647 264.678C311.767 264.58 311.896 264.489 312.023 264.398C312.092 264.349 312.155 264.295 312.225 264.249C312.426 264.114 312.636 263.988 312.855 263.872C312.989 263.8 313.124 263.734 313.26 263.673C313.315 263.647 313.372 263.627 313.427 263.603C313.509 263.568 313.59 263.532 313.672 263.501C313.729 263.478 313.787 263.461 313.845 263.441C313.926 263.412 314.008 263.382 314.09 263.357C314.153 263.337 314.217 263.322 314.28 263.304C314.358 263.282 314.436 263.258 314.515 263.239C314.88 263.148 315.248 263.09 315.617 263.059C315.732 263.05 315.847 263.049 315.962 263.045C316.043 263.042 316.125 263.034 316.206 263.034C316.324 263.034 316.44 263.043 316.557 263.049C316.634 263.052 316.711 263.052 316.787 263.058C316.903 263.068 317.02 263.085 317.136 263.101C317.211 263.111 317.287 263.116 317.361 263.128C317.51 263.153 317.657 263.185 317.803 263.218C317.844 263.227 317.886 263.233 317.927 263.244C318.114 263.29 318.299 263.343 318.481 263.404C318.544 263.426 318.605 263.452 318.667 263.475C318.786 263.518 318.905 263.56 319.021 263.61C319.092 263.639 319.16 263.676 319.23 263.708C319.335 263.757 319.442 263.804 319.544 263.857C319.616 263.895 319.685 263.939 319.755 263.979C319.854 264.035 319.953 264.089 320.05 264.15C320.428 264.389 320.783 264.666 321.114 264.977C321.189 265.048 321.259 265.125 321.332 265.199C321.392 265.261 321.455 265.321 321.514 265.385C321.589 265.468 321.658 265.557 321.73 265.644C321.78 265.705 321.833 265.763 321.881 265.826C321.964 265.935 322.041 266.05 322.119 266.164C322.15 266.21 322.184 266.253 322.215 266.301C322.321 266.465 322.421 266.635 322.515 266.81C322.608 266.985 322.694 267.162 322.771 267.342C322.799 267.405 322.821 267.471 322.846 267.536C322.892 267.651 322.941 267.767 322.98 267.884C323.005 267.957 323.023 268.031 323.045 268.105C323.078 268.215 323.114 268.324 323.141 268.433C323.161 268.511 323.174 268.589 323.19 268.667C323.213 268.775 323.24 268.883 323.257 268.992C323.337 269.44 323.367 269.889 323.355 270.335Z" fill="url(#paint2_linear_123_2)" stroke="white" stroke-miterlimit="10"/>
<path d="M274.955 327.019L275.39 325.597C278.307 325.972 281.309 325.82 284.248 325.095L284.782 326.093C285.926 328.237 288.48 329.333 290.765 328.494C292.286 327.935 293.324 326.742 293.747 325.361C294.108 324.179 294.017 322.861 293.389 321.685L292.996 320.95C295.613 318.992 297.742 316.571 299.327 313.864L299.597 313.946C301.925 314.654 304.507 313.629 305.529 311.424C306.209 309.957 306.098 308.38 305.418 307.104C304.836 306.014 303.838 305.146 302.56 304.758L302.45 304.724C302.872 301.456 302.627 298.079 301.651 294.805C303.966 293.537 304.836 290.642 303.59 288.309C302.962 287.132 301.917 286.322 300.732 285.961C299.566 285.607 298.269 285.689 297.104 286.289C294.926 283.654 292.254 281.567 289.299 280.092L289.316 280.037C289.938 278.003 289.221 275.737 287.434 274.577C285.786 273.506 283.908 273.533 282.433 274.316C281.34 274.897 280.47 275.892 280.08 277.168L279.955 277.578C276.819 277.381 273.616 277.792 270.528 278.865L270.218 278.283C268.962 275.932 266.039 274.888 263.662 276.104C261.253 277.336 260.33 280.292 261.598 282.667L262.2 283.795C259.958 285.823 258.155 288.224 256.839 290.848L255.414 290.414C252.86 289.637 250.052 290.962 249.234 293.498C248.405 296.069 249.848 298.809 252.427 299.594L254.319 300.17C254.144 302.943 254.447 305.768 255.268 308.519L253.392 309.517C251.012 310.782 250.124 313.749 251.434 316.112C252.726 318.444 255.736 319.206 258.093 317.953L259.816 317.038C261.646 319.253 263.827 321.081 266.231 322.482L265.653 324.37C264.867 326.944 266.341 329.667 268.942 330.415C271.507 331.153 274.176 329.568 274.955 327.019ZM293.606 302.035C293.604 302.148 293.596 302.261 293.591 302.374C293.587 302.469 293.584 302.564 293.577 302.658C293.57 302.769 293.559 302.88 293.548 302.989C293.54 303.083 293.534 303.177 293.524 303.27C293.512 303.381 293.495 303.491 293.481 303.602C293.469 303.694 293.459 303.786 293.445 303.878C293.428 303.989 293.408 304.1 293.389 304.211C293.373 304.302 293.36 304.392 293.343 304.482C293.321 304.597 293.295 304.711 293.27 304.825C293.252 304.91 293.236 304.995 293.216 305.08C293.187 305.203 293.153 305.326 293.122 305.449C293.102 305.523 293.085 305.598 293.065 305.672C293.024 305.819 292.979 305.964 292.934 306.11C292.919 306.159 292.906 306.208 292.89 306.258C292.828 306.452 292.762 306.645 292.692 306.836C292.675 306.884 292.655 306.931 292.637 306.978C292.584 307.121 292.529 307.265 292.471 307.407C292.447 307.465 292.421 307.521 292.397 307.578C292.341 307.709 292.286 307.84 292.227 307.968C292.193 308.042 292.156 308.114 292.121 308.187C292.069 308.298 292.017 308.41 291.96 308.519C291.921 308.597 291.878 308.673 291.837 308.748C291.782 308.852 291.728 308.958 291.67 309.061C291.625 309.141 291.576 309.221 291.53 309.301C291.473 309.398 291.418 309.495 291.359 309.59C291.309 309.672 291.255 309.752 291.203 309.832C291.144 309.924 291.086 310.017 291.025 310.108C290.971 310.188 290.914 310.265 290.858 310.345C290.795 310.434 290.734 310.525 290.669 310.614C290.61 310.694 290.549 310.771 290.488 310.849C290.421 310.937 290.355 311.026 290.285 311.113C289.795 311.725 289.253 312.302 288.663 312.837C288.532 312.957 288.392 313.069 288.255 313.185C288.154 313.271 288.056 313.36 287.952 313.444C287.809 313.558 287.66 313.664 287.512 313.774C287.408 313.851 287.309 313.931 287.203 314.006C287.036 314.124 286.861 314.234 286.688 314.346C286.596 314.405 286.507 314.469 286.412 314.527C286.142 314.693 285.865 314.852 285.58 315.002C285.348 315.126 285.114 315.242 284.879 315.352C284.811 315.384 284.743 315.411 284.675 315.442C284.507 315.517 284.338 315.594 284.168 315.663C284.075 315.7 283.982 315.733 283.889 315.768C283.743 315.824 283.597 315.882 283.45 315.934C283.346 315.971 283.241 316.001 283.136 316.035C282.999 316.08 282.863 316.127 282.725 316.167C282.62 316.198 282.514 316.224 282.408 316.252C282.271 316.29 282.133 316.329 281.995 316.362C281.884 316.389 281.773 316.41 281.662 316.434C281.528 316.463 281.395 316.494 281.261 316.52C281.148 316.541 281.035 316.556 280.921 316.575C280.789 316.597 280.657 316.621 280.524 316.64C280.41 316.655 280.295 316.665 280.181 316.679C280.046 316.694 279.911 316.713 279.776 316.724C279.211 316.772 278.646 316.789 278.084 316.775C277.97 316.772 277.857 316.765 277.744 316.76C277.649 316.755 277.553 316.753 277.46 316.746C277.349 316.738 277.238 316.727 277.128 316.717C277.034 316.709 276.94 316.703 276.846 316.692C276.735 316.68 276.625 316.664 276.514 316.65C276.422 316.638 276.329 316.628 276.237 316.614C276.121 316.597 276.004 316.575 275.888 316.555C275.803 316.54 275.718 316.527 275.633 316.511C275.512 316.488 275.393 316.461 275.273 316.435C275.193 316.418 275.112 316.403 275.032 316.384C274.909 316.355 274.786 316.323 274.663 316.291C274.588 316.271 274.513 316.254 274.439 316.234C274.292 316.193 274.146 316.149 274 316.104C273.951 316.088 273.9 316.075 273.852 316.059C273.657 315.997 273.464 315.932 273.272 315.862C273.213 315.841 273.155 315.816 273.096 315.794C272.964 315.744 272.831 315.694 272.7 315.641C272.628 315.612 272.558 315.579 272.486 315.549C272.37 315.499 272.252 315.45 272.136 315.397C272.067 315.366 272 315.332 271.932 315.299C271.815 315.243 271.698 315.189 271.583 315.13C271.516 315.096 271.449 315.059 271.382 315.023C271.268 314.962 271.153 314.904 271.041 314.841C270.967 314.8 270.896 314.756 270.823 314.714C270.718 314.654 270.613 314.594 270.509 314.53C270.434 314.483 270.358 314.433 270.283 314.386C270.185 314.323 270.086 314.262 269.99 314.198C269.915 314.147 269.842 314.094 269.768 314.042C269.674 313.975 269.578 313.911 269.484 313.843C269.408 313.787 269.334 313.729 269.259 313.672C269.167 313.602 269.074 313.533 268.983 313.461C268.664 313.206 268.354 312.937 268.054 312.655C267.883 312.494 267.722 312.319 267.558 312.149C267.442 312.028 267.319 311.913 267.205 311.788C267.041 311.606 266.888 311.41 266.731 311.219C266.631 311.095 266.524 310.979 266.427 310.853C266.263 310.639 266.112 310.412 265.958 310.187C265.879 310.072 265.794 309.963 265.717 309.844C265.493 309.496 265.281 309.136 265.083 308.765C264.984 308.58 264.888 308.393 264.798 308.205C264.77 308.147 264.745 308.088 264.718 308.03C264.657 307.899 264.596 307.769 264.538 307.637C264.509 307.568 264.482 307.498 264.453 307.429C264.403 307.308 264.352 307.187 264.304 307.065C264.273 306.985 264.246 306.904 264.217 306.824C264.176 306.712 264.133 306.601 264.095 306.488C264.065 306.402 264.039 306.314 264.012 306.227C263.978 306.121 263.942 306.014 263.911 305.908C263.884 305.818 263.861 305.727 263.837 305.636C263.808 305.532 263.778 305.428 263.751 305.323C263.728 305.232 263.709 305.14 263.688 305.049C263.664 304.945 263.639 304.84 263.616 304.736C263.597 304.641 263.581 304.546 263.563 304.45C263.543 304.346 263.522 304.242 263.504 304.137C263.436 303.731 263.385 303.326 263.352 302.92C263.343 302.802 263.337 302.685 263.33 302.567C263.325 302.475 263.317 302.384 263.313 302.292C263.309 302.179 263.308 302.065 263.306 301.951C263.304 301.859 263.301 301.767 263.301 301.674C263.301 301.558 263.305 301.443 263.308 301.328C263.309 301.238 263.309 301.149 263.314 301.059C263.318 300.944 263.327 300.829 263.335 300.714C263.341 300.625 263.344 300.535 263.351 300.445C263.361 300.33 263.374 300.215 263.386 300.101C263.396 300.012 263.402 299.924 263.413 299.835C263.427 299.721 263.446 299.607 263.462 299.493C263.475 299.405 263.486 299.316 263.5 299.228C263.52 299.108 263.544 298.991 263.566 298.873C263.582 298.79 263.595 298.708 263.612 298.626C263.639 298.496 263.67 298.367 263.7 298.238C263.716 298.168 263.73 298.098 263.748 298.029C263.797 297.832 263.85 297.636 263.907 297.44C263.928 297.368 263.952 297.298 263.974 297.227C264.012 297.104 264.049 296.979 264.09 296.857C264.115 296.78 264.144 296.705 264.171 296.63C264.212 296.513 264.252 296.397 264.296 296.281C264.329 296.196 264.364 296.112 264.399 296.026C264.44 295.922 264.481 295.817 264.525 295.713C264.561 295.629 264.6 295.547 264.637 295.464C264.683 295.361 264.729 295.257 264.777 295.154C264.816 295.074 264.857 294.995 264.897 294.915C264.948 294.812 264.998 294.708 265.052 294.606C265.096 294.522 265.145 294.439 265.191 294.355C265.244 294.26 265.295 294.164 265.35 294.069C265.397 293.987 265.448 293.906 265.499 293.824C265.557 293.728 265.614 293.63 265.674 293.536C265.976 293.063 266.306 292.604 266.661 292.163C266.747 292.057 266.839 291.954 266.928 291.849C267.002 291.763 267.073 291.676 267.148 291.591C267.24 291.489 267.336 291.39 267.431 291.29C267.507 291.209 267.581 291.127 267.659 291.048C267.757 290.948 267.86 290.854 267.961 290.757C268.04 290.681 268.118 290.603 268.199 290.528C268.3 290.434 268.408 290.346 268.513 290.255C268.598 290.181 268.682 290.104 268.77 290.032C268.88 289.941 268.994 289.855 269.106 289.767C269.193 289.699 269.279 289.629 269.367 289.562C269.494 289.468 269.625 289.378 269.755 289.288C269.836 289.232 269.912 289.174 269.994 289.12C270.15 289.016 270.311 288.917 270.471 288.818C270.531 288.781 270.588 288.741 270.648 288.705C270.871 288.572 271.099 288.443 271.331 288.32C271.615 288.168 271.902 288.028 272.191 287.896C272.288 287.853 272.386 287.816 272.483 287.774C272.677 287.691 272.87 287.606 273.066 287.532C273.177 287.489 273.29 287.455 273.402 287.416C273.585 287.351 273.767 287.283 273.952 287.226C274.076 287.187 274.202 287.157 274.327 287.122C274.503 287.072 274.677 287.019 274.854 286.975C275.628 286.785 276.411 286.659 277.193 286.594C277.304 286.585 277.416 286.58 277.529 286.573C277.627 286.567 277.725 286.559 277.823 286.555C277.934 286.551 278.044 286.55 278.155 286.548C278.25 286.547 278.346 286.542 278.441 286.542C278.553 286.542 278.664 286.547 278.775 286.549C278.869 286.551 278.964 286.551 279.059 286.555C279.176 286.56 279.292 286.569 279.408 286.576C279.496 286.582 279.585 286.586 279.673 286.592C279.793 286.603 279.913 286.616 280.033 286.629C280.116 286.638 280.201 286.644 280.284 286.655C280.408 286.67 280.531 286.689 280.654 286.707C280.734 286.719 280.813 286.729 280.892 286.741C281.021 286.763 281.148 286.787 281.276 286.812C281.35 286.826 281.423 286.838 281.496 286.853C281.627 286.879 281.756 286.911 281.885 286.941C281.955 286.957 282.025 286.97 282.094 286.988C282.292 287.037 282.49 287.09 282.686 287.147C282.729 287.16 282.771 287.175 282.814 287.187C282.967 287.233 283.119 287.279 283.27 287.329C283.347 287.355 283.422 287.384 283.498 287.41C283.615 287.451 283.732 287.491 283.848 287.535C283.933 287.568 284.017 287.603 284.103 287.637C284.208 287.679 284.312 287.72 284.417 287.763C284.5 287.799 284.583 287.838 284.666 287.876C284.77 287.922 284.874 287.967 284.977 288.015C285.059 288.054 285.139 288.096 285.22 288.137C285.322 288.188 285.425 288.236 285.525 288.289C285.611 288.334 285.696 288.384 285.781 288.43C285.875 288.482 285.97 288.533 286.063 288.586C286.15 288.636 286.234 288.689 286.32 288.741C286.413 288.797 286.507 288.852 286.599 288.91C287.4 289.418 288.156 290.004 288.857 290.664C289.024 290.821 289.181 290.993 289.342 291.159C289.462 291.284 289.588 291.402 289.705 291.53C289.868 291.711 290.019 291.904 290.174 292.094C290.277 292.219 290.385 292.337 290.483 292.465C290.651 292.685 290.807 292.918 290.964 293.15C291.039 293.259 291.12 293.361 291.192 293.474C291.416 293.822 291.628 294.182 291.826 294.554C291.925 294.739 292.021 294.926 292.111 295.114C292.141 295.176 292.167 295.239 292.196 295.301C292.255 295.427 292.315 295.553 292.37 295.681C292.403 295.755 292.431 295.829 292.462 295.904C292.51 296.021 292.56 296.136 292.605 296.254C292.637 296.339 292.666 296.424 292.697 296.509C292.736 296.616 292.777 296.723 292.813 296.831C292.844 296.92 292.87 297.01 292.898 297.099C292.932 297.204 292.967 297.308 292.997 297.413C293.023 297.499 293.045 297.586 293.069 297.674C293.099 297.782 293.13 297.889 293.157 297.997C293.18 298.087 293.199 298.178 293.219 298.269C293.244 298.374 293.269 298.479 293.292 298.584C293.31 298.676 293.327 298.768 293.344 298.86C293.364 298.968 293.386 299.075 293.404 299.183C293.565 300.135 293.63 301.088 293.606 302.035Z" fill="url(#paint3_linear_123_2)" stroke="white" stroke-miterlimit="10"/>
<path d="M312.438 283.735L312.642 283.065C314.017 283.242 315.433 283.169 316.818 282.828L317.069 283.299C317.609 284.31 318.812 284.826 319.889 284.43C320.606 284.167 321.095 283.605 321.295 282.954C321.465 282.397 321.422 281.776 321.126 281.221L320.941 280.874C322.174 279.951 323.178 278.81 323.926 277.534L324.053 277.572C325.151 277.906 326.368 277.423 326.85 276.383C327.17 275.692 327.118 274.948 326.798 274.346C326.523 273.832 326.053 273.423 325.45 273.24L325.398 273.224C325.597 271.683 325.482 270.091 325.021 268.547C326.113 267.949 326.523 266.584 325.935 265.485C325.639 264.93 325.146 264.548 324.588 264.378C324.038 264.211 323.426 264.249 322.878 264.533C321.851 263.29 320.591 262.307 319.199 261.612L319.206 261.586C319.5 260.627 319.161 259.559 318.319 259.012C317.542 258.508 316.657 258.52 315.962 258.89C315.447 259.164 315.036 259.632 314.853 260.234L314.794 260.427C313.316 260.334 311.806 260.528 310.35 261.034L310.203 260.759C309.611 259.65 308.233 259.158 307.112 259.731C305.977 260.312 305.541 261.706 306.139 262.825L306.423 263.357C305.366 264.313 304.516 265.445 303.896 266.682L303.224 266.478C302.02 266.111 300.696 266.737 300.311 267.932C299.92 269.144 300.6 270.435 301.816 270.806L302.708 271.077C302.625 272.384 302.769 273.716 303.155 275.013L302.271 275.484C301.148 276.08 300.73 277.479 301.348 278.593C301.957 279.692 303.376 280.052 304.487 279.461L305.299 279.03C306.162 280.074 307.19 280.936 308.323 281.596L308.051 282.486C307.68 283.699 308.375 284.983 309.602 285.336C310.813 285.684 312.071 284.937 312.438 283.735ZM321.231 271.956C321.228 272.072 321.216 272.186 321.208 272.301C321.202 272.38 321.2 272.459 321.192 272.538C321.179 272.654 321.158 272.769 321.141 272.884C321.129 272.959 321.121 273.035 321.106 273.11C321.082 273.24 321.048 273.369 321.016 273.497C321.001 273.555 320.991 273.614 320.975 273.671C320.924 273.857 320.865 274.04 320.799 274.22C320.793 274.24 320.783 274.259 320.775 274.278C320.715 274.439 320.652 274.598 320.58 274.754C320.551 274.816 320.517 274.876 320.486 274.938C320.432 275.049 320.378 275.161 320.317 275.269C320.276 275.344 320.228 275.415 320.183 275.488C320.126 275.58 320.074 275.674 320.013 275.764C319.963 275.839 319.906 275.91 319.852 275.983C319.79 276.068 319.731 276.155 319.664 276.238C319.433 276.526 319.178 276.799 318.899 277.05C318.839 277.106 318.774 277.159 318.711 277.211C318.661 277.253 318.614 277.296 318.564 277.336C318.498 277.389 318.429 277.438 318.362 277.489C318.312 277.526 318.263 277.565 318.212 277.602C318.138 277.654 318.06 277.703 317.983 277.752C317.935 277.784 317.888 277.817 317.839 277.847C317.712 277.925 317.581 278 317.447 278.072C317.228 278.188 317.006 278.291 316.781 278.383C316.71 278.412 316.636 278.432 316.564 278.459C316.41 278.516 316.257 278.574 316.101 278.62C316.009 278.648 315.916 278.664 315.823 278.688C315.686 278.722 315.549 278.761 315.411 278.786C315.309 278.806 315.207 278.814 315.105 278.829C314.973 278.848 314.842 278.871 314.711 278.882C314.445 278.905 314.178 278.913 313.913 278.906C313.797 278.904 313.683 278.892 313.568 278.883C313.488 278.877 313.408 278.876 313.33 278.867C313.213 278.854 313.098 278.834 312.982 278.815C312.907 278.803 312.831 278.796 312.757 278.782C312.625 278.757 312.496 278.724 312.366 278.692C312.309 278.677 312.251 278.667 312.194 278.652C312.008 278.601 311.825 278.542 311.644 278.477C311.621 278.468 311.598 278.457 311.575 278.448C311.418 278.39 311.262 278.328 311.109 278.258C311.041 278.227 310.976 278.19 310.909 278.157C310.804 278.104 310.696 278.054 310.593 277.996C310.525 277.958 310.459 277.913 310.393 277.872C310.294 277.813 310.194 277.756 310.098 277.692C310.03 277.646 309.965 277.594 309.899 277.547C309.807 277.48 309.713 277.415 309.623 277.345C309.473 277.225 309.326 277.098 309.186 276.965C309.107 276.891 309.033 276.81 308.958 276.733C308.901 276.674 308.841 276.618 308.786 276.557C308.712 276.475 308.643 276.387 308.573 276.301C308.521 276.239 308.468 276.18 308.419 276.116C308.338 276.01 308.262 275.897 308.186 275.786C308.153 275.737 308.117 275.692 308.085 275.641C307.979 275.477 307.879 275.308 307.785 275.133C307.691 274.957 307.606 274.78 307.529 274.601C307.501 274.539 307.481 274.476 307.456 274.413C307.409 274.295 307.36 274.178 307.32 274.059C307.296 273.987 307.278 273.915 307.256 273.843C307.222 273.732 307.187 273.621 307.158 273.509C307.139 273.432 307.126 273.353 307.11 273.275C307.087 273.167 307.06 273.059 307.042 272.95C307.011 272.758 306.987 272.567 306.971 272.376C306.961 272.263 306.961 272.152 306.957 272.04C306.955 271.956 306.947 271.873 306.947 271.788C306.947 271.674 306.955 271.561 306.961 271.447C306.964 271.368 306.964 271.288 306.971 271.209C306.981 271.084 307 270.961 307.016 270.837C307.025 270.77 307.03 270.703 307.041 270.635C307.07 270.457 307.107 270.28 307.15 270.104C307.152 270.093 307.154 270.082 307.157 270.07C307.203 269.884 307.257 269.699 307.318 269.517C307.333 269.47 307.354 269.425 307.37 269.379C307.419 269.244 307.466 269.109 307.523 268.977C307.551 268.912 307.584 268.849 307.614 268.785C307.665 268.674 307.714 268.564 307.771 268.455C307.808 268.385 307.851 268.318 307.891 268.248C307.948 268.148 308.002 268.047 308.064 267.95C308.207 267.727 308.362 267.511 308.529 267.303C308.613 267.199 308.708 267.101 308.799 267.001C308.867 266.927 308.929 266.849 309 266.777C309.097 266.68 309.204 266.589 309.307 266.497C309.379 266.431 309.448 266.362 309.523 266.299C309.642 266.201 309.772 266.11 309.899 266.019C309.967 265.97 310.03 265.916 310.1 265.87C310.301 265.735 310.511 265.609 310.73 265.493C310.864 265.421 311 265.355 311.135 265.293C311.191 265.268 311.247 265.248 311.303 265.224C311.384 265.189 311.465 265.153 311.547 265.122C311.604 265.099 311.662 265.082 311.72 265.062C311.801 265.033 311.883 265.003 311.965 264.978C312.028 264.958 312.092 264.943 312.155 264.925C312.234 264.903 312.312 264.879 312.39 264.86C312.755 264.769 313.123 264.711 313.493 264.68C313.608 264.671 313.722 264.67 313.837 264.666C313.918 264.663 314 264.655 314.081 264.655C314.199 264.655 314.316 264.664 314.433 264.67C314.509 264.673 314.586 264.673 314.662 264.679C314.78 264.688 314.896 264.706 315.012 264.722C315.087 264.732 315.163 264.737 315.237 264.749C315.385 264.774 315.533 264.806 315.679 264.839C315.72 264.848 315.761 264.854 315.802 264.865C315.989 264.911 316.174 264.964 316.357 265.025C316.42 265.047 316.48 265.073 316.543 265.096C316.661 265.139 316.781 265.181 316.897 265.231C316.967 265.26 317.036 265.297 317.106 265.329C317.21 265.378 317.317 265.425 317.419 265.478C317.491 265.516 317.56 265.56 317.63 265.6C317.729 265.656 317.829 265.71 317.925 265.771C318.303 266.01 318.659 266.286 318.99 266.598C319.065 266.669 319.135 266.746 319.207 266.82C319.268 266.882 319.331 266.942 319.39 267.006C319.465 267.089 319.534 267.178 319.605 267.265C319.656 267.326 319.709 267.384 319.756 267.447C319.84 267.556 319.917 267.671 319.994 267.785C320.026 267.831 320.06 267.874 320.091 267.922C320.196 268.086 320.296 268.255 320.39 268.431C320.484 268.606 320.569 268.783 320.647 268.963C320.675 269.026 320.696 269.092 320.722 269.157C320.768 269.272 320.816 269.388 320.856 269.505C320.88 269.578 320.898 269.652 320.92 269.726C320.954 269.836 320.99 269.945 321.017 270.054C321.036 270.132 321.049 270.21 321.065 270.288C321.088 270.396 321.115 270.504 321.133 270.613C321.211 271.061 321.242 271.51 321.231 271.956Z" fill="url(#paint4_linear_123_2)" stroke="white" stroke-miterlimit="10"/>
<path d="M0 29.5592H102.189C102.189 29.5592 101.185 17.7856 86.1205 20.7917C71.0554 23.7977 74.3196 0 56.2415 0C38.1635 0 49.9653 22.2942 36.9086 20.7917C23.8529 19.2892 25.8613 14.7796 14.3115 17.2845C6.15562 19.0536 10.7962 28.3063 0 29.5592Z" fill="url(#paint5_linear_123_2)"/>
<path d="M290.96 53.6477H366.057C366.057 53.6477 365.351 45.5407 355.127 49.5942C344.902 53.6477 344.902 33.7181 337.675 37.7715C330.447 41.825 330.8 42.8384 323.219 37.7715C315.639 32.7047 311.056 21.8954 304.886 37.7715C298.718 53.6477 290.96 53.6477 290.96 53.6477Z" fill="url(#paint6_linear_123_2)"/>
<path d="M248.236 269.169H152.288C146.075 269.169 141.717 263.617 142.552 256.767L161.633 100.314C162.467 93.4648 168.181 87.9118 174.394 87.9118H270.342C276.555 87.9118 280.913 93.4638 280.078 100.314L260.998 256.767C260.163 263.617 254.449 269.169 248.236 269.169Z" fill="white" stroke="#00063A" stroke-miterlimit="10"/>
<path d="M256.81 187.374H160.955L171.27 103.269H267.125L256.81 187.374Z" fill="white" stroke="#00063A" stroke-width="2" stroke-miterlimit="10"/>
<path d="M246.595 232.379H163.656C160.058 232.379 157.499 229.466 157.94 225.873L158.749 219.28C159.19 215.687 162.463 212.774 166.061 212.774H249C252.598 212.774 255.156 215.687 254.715 219.28L253.907 225.873C253.466 229.465 250.192 232.379 246.595 232.379Z" fill="white" stroke="#00063A" stroke-width="0.5" stroke-miterlimit="10"/>
<path d="M216.118 263.867H182.981C179.795 263.867 177.528 260.439 177.918 256.21C178.309 251.981 181.208 248.553 184.394 248.553H217.532C220.718 248.553 222.985 251.981 222.594 256.21C222.204 260.439 219.304 263.867 216.118 263.867Z" fill="#7266F8"/>
<path d="M172.766 219.422C172.626 220.573 171.99 221.606 171.099 222.308C170.353 222.895 169.427 223.252 168.463 223.252C167.498 223.252 166.661 222.895 166.058 222.308C165.339 221.606 164.957 220.573 165.098 219.422C165.357 217.306 167.284 215.591 169.403 215.591C171.52 215.591 173.026 217.306 172.766 219.422Z" fill="black"/>
<path d="M173.891 227.72H161.939C162.197 225.613 163.517 223.762 165.298 222.7C166.029 223.518 167.108 224.023 168.368 224.023C169.627 224.023 170.83 223.518 171.763 222.7C173.282 223.763 174.149 225.613 173.891 227.72Z" fill="black"/>
<path d="M235.775 141.346C234.995 147.715 231.476 153.433 226.543 157.316C222.418 160.569 217.292 162.541 211.957 162.541C206.615 162.541 201.979 160.568 198.646 157.316C194.665 153.433 192.55 147.714 193.331 141.346C194.768 129.635 205.433 120.144 217.157 120.144C228.874 120.144 237.212 129.635 235.775 141.346Z" fill="#DDD5FF"/>
<path d="M241.996 186.486H175.851C177.281 174.482 184.585 164.955 194.442 159.492C198.492 163.701 204.464 166.3 211.433 166.3C218.403 166.3 225.059 163.701 230.219 159.492C238.63 164.955 243.427 174.482 241.996 186.486Z" fill="#DDD5FF"/>
<path d="M241.065 224.55H187.06C185.459 224.55 184.321 223.254 184.517 221.656C184.713 220.057 186.17 218.761 187.77 218.761H241.774C243.375 218.761 244.513 220.057 244.317 221.656C244.121 223.254 242.665 224.55 241.065 224.55Z" fill="#C6C6C6"/>
<path d="M193.141 258.166L193.06 258.821H190.832L191.363 254.5H192.069L191.619 258.166H193.141Z" fill="#FEFEFE"/>
<path d="M193.671 256.661C193.821 255.437 194.938 254.443 196.163 254.443C197.389 254.443 198.262 255.437 198.112 256.661C197.961 257.885 196.844 258.879 195.619 258.879C194.394 258.879 193.521 257.885 193.671 256.661ZM197.413 256.661C197.518 255.804 196.936 255.142 196.078 255.142C195.227 255.142 194.476 255.804 194.37 256.661C194.265 257.518 194.855 258.18 195.705 258.18C196.563 258.181 197.308 257.518 197.413 256.661Z" fill="#FEFEFE"/>
<path d="M203.208 256.488L203.187 256.661C203.037 257.885 201.92 258.879 200.694 258.879C199.462 258.879 198.596 257.885 198.746 256.661C198.896 255.437 200.006 254.443 201.239 254.443C202.075 254.443 202.752 254.911 203.043 255.602L202.397 255.926C202.196 255.451 201.737 255.142 201.153 255.142C200.295 255.142 199.544 255.804 199.438 256.661C199.333 257.518 199.922 258.18 200.781 258.18C201.487 258.18 202.126 257.726 202.379 257.078H200.909L200.981 256.488H203.208V256.488Z" fill="#FEFEFE"/>
<path d="M204.281 254.501H204.987L204.457 258.822H203.751L204.281 254.501Z" fill="#FEFEFE"/>
<path d="M209.775 254.501L209.244 258.822H208.538L206.539 255.61L206.145 258.822H205.439L205.969 254.501H206.675L208.683 257.706L209.076 254.501H209.775Z" fill="#FEFEFE"/>
<path d="M84.1865 346.149C117.854 346.149 145.147 343.979 145.147 341.301C145.147 338.623 117.854 336.453 84.1865 336.453C50.519 336.453 23.226 338.623 23.226 341.301C23.226 343.979 50.519 346.149 84.1865 346.149Z" fill="#C7CCFF"/>
<path d="M185.861 68.0262H125.971V126.915H185.861V68.0262Z" fill="white" stroke="#00063A" stroke-width="3" stroke-miterlimit="10"/>
<path d="M179.976 126.915H163.202C163.163 120.901 167.135 114.885 167.135 114.885C172.186 116.9 176.549 121.77 179.976 126.915Z" fill="#5E4AED"/>
<path d="M167.468 126.915H133.17C133.679 121.947 134.569 118.25 136.038 117.242C136.051 117.233 136.062 117.225 136.075 117.218C136.621 116.846 137.199 116.505 137.802 116.196C140.345 114.895 143.344 114.14 146.439 113.745H146.441C147.362 113.627 148.288 113.541 149.217 113.482C152.582 113.268 155.932 113.408 158.808 113.671C160.004 113.779 161.117 113.909 162.117 114.04C165.155 114.446 167.135 114.883 167.135 114.883L167.468 126.915Z" fill="#5E4AED"/>
<path d="M144.005 126.915H127.091C130.02 122.094 133.186 118.429 136.075 117.219C137.411 116.658 138.689 116.624 139.856 117.243C143.402 119.126 144.402 122.719 144.005 126.915Z" fill="#5E4AED"/>
<path d="M150.618 119.796C147.375 119.365 131.16 116.13 128.133 108.148C125.106 100.166 153.213 98.2259 162.078 113.973C167.657 123.884 150.618 119.796 150.618 119.796Z" fill="black"/>
<path d="M148.945 115.345C148.945 115.345 150.983 102.594 149.769 98.1919C148.554 93.7885 151.4 84.5048 151.4 84.5048L161.634 86.1918L163.559 101.878L159.773 107.108L158.394 116.492C158.395 116.492 154.023 117.84 148.945 115.345Z" fill="white" stroke="black" stroke-miterlimit="10"/>
<path d="M146.82 87.1159C145.138 87.8306 144.401 89.8052 145.207 91.442C146.53 94.1313 149.745 96.4017 149.876 97.9543C150.556 106.074 162.945 114.305 164.99 101.757C165.443 98.9747 162.534 94.7047 162.534 94.7047C162.534 94.7047 154.746 98.0896 152.558 93.8868C150.371 89.6839 151.279 88.448 151.279 88.448C151.279 88.448 160.969 89.1096 163.404 85.9281C164.91 83.9595 164.899 78.6922 164.899 78.6922C164.899 78.6922 150.512 77.7991 148.196 81.3103C146.803 83.4243 146.82 87.1159 146.82 87.1159Z" fill="black"/>
<path d="M163.058 96.8848C160.787 102.64 156.063 97.9974 156.063 97.9974L163.058 96.8848Z" fill="#FEFEFE"/>
<path d="M149.73 92.0295C149.73 92.0295 146.547 90.1891 145.446 91.9162C144.345 93.6432 148.826 96.0018 150.516 95.654L149.73 92.0295Z" fill="white" stroke="black" stroke-miterlimit="10"/>
<path d="M139.592 108.148C139.592 108.148 147.159 117.424 158.403 116.776" stroke="white" stroke-miterlimit="10"/>
<path d="M103.784 321.778L102.807 337.872H133.603C133.603 337.872 136.048 330.312 126.271 328.605C116.495 326.898 114.784 319.583 114.784 319.583L103.784 321.778Z" fill="white" stroke="black" stroke-miterlimit="10"/>
<path d="M37.9414 312.154L28.825 325.468L55.259 341.233C55.259 341.233 61.2448 335.996 53.7309 329.525C46.2169 323.055 48.5106 315.901 48.5106 315.901L37.9414 312.154Z" fill="white" stroke="black" stroke-miterlimit="10"/>
<path d="M58.8908 191.43C44.6476 233.271 75.5081 255.639 34.8983 312.795L49.6589 319.583C72.3424 295.374 80.5184 267.743 85.0022 234.06C90.2647 245.903 102.277 326.986 101.198 325.637L120.081 324.414C120.081 324.414 113.214 222.625 97.5184 196.689L58.8908 191.43Z" fill="black"/>
<path d="M100.536 138.991C116.066 145.189 126.271 173.521 126.271 173.521L134.258 135.007H146.682C146.682 135.007 144.242 187.687 128.934 192.778C113.625 197.869 104.973 167.987 99.4264 162.676C90.5271 154.152 100.536 138.991 100.536 138.991Z" fill="#F5A933" stroke="black" stroke-miterlimit="10"/>
<path d="M59.4926 203.182H102.311L100.535 138.991C100.535 138.991 75.0349 133.338 62.5981 141.869C55.4991 146.739 59.4926 203.182 59.4926 203.182Z" fill="#F5A933" stroke="black" stroke-miterlimit="10"/>
<path d="M67.2577 141.869C55.4639 135.603 34.4231 184.146 39.5258 198.091C44.6285 212.035 112.295 194.106 112.295 194.106V185.253L58.6055 184.81C58.6045 184.81 82.6865 150.066 67.2577 141.869Z" fill="#F5A933" stroke="black" stroke-miterlimit="10"/>
<path d="M80.3868 144.984C76.4304 144.458 56.6484 140.511 52.9563 130.774C49.2641 121.037 83.5525 118.669 94.3668 137.879C101.173 149.97 80.3868 144.984 80.3868 144.984Z" fill="black"/>
<path d="M88.6955 146.105C88.0585 146.105 87.3804 146.08 86.66 146.029C83.435 145.801 80.5114 145.117 80.3697 145.084C78.0781 144.778 72.245 143.622 66.5374 141.427C63.1989 140.143 60.3888 138.691 58.1856 137.11C55.5111 135.191 53.7208 133.072 52.8628 130.81C51.9847 128.496 53.1602 126.45 56.1702 125.048C58.3292 124.042 61.2478 123.446 64.6104 123.322C68.1218 123.192 71.8682 123.598 75.4448 124.495C84.082 126.662 90.8334 131.397 94.4542 137.831C96.0014 140.579 96.2486 142.683 95.1887 144.081C94.1679 145.426 91.9878 146.105 88.6955 146.105ZM65.8753 123.509C62.1269 123.509 58.703 124.088 56.2546 125.228C53.3531 126.579 52.2148 128.536 53.0507 130.738C56.4766 139.771 74.3939 144.085 80.4009 144.884L80.4109 144.886C80.4813 144.903 84.6959 145.896 88.6704 145.896C91.3388 145.896 93.8997 145.449 95.0279 143.959C96.0356 142.63 95.7834 140.6 94.2784 137.928C90.6837 131.543 83.9775 126.841 75.3946 124.689C72.244 123.899 68.9506 123.509 65.8753 123.509Z" fill="url(#paint7_linear_123_2)"/>
<path d="M112.294 186.534C112.294 186.534 124.053 184.811 134.48 191.893C134.48 191.893 132.598 200.218 126.493 197.427C121.168 194.993 115.623 194.328 112.294 193.443V186.534Z" fill="white" stroke="black" stroke-miterlimit="10"/>
<path d="M123.117 193.404C123.117 193.404 127.633 194.657 131.969 196.925" stroke="black" stroke-miterlimit="10"/>
<path d="M124.053 191.229C124.053 191.229 129.452 192.199 133.076 195.255" stroke="black" stroke-miterlimit="10"/>
<path d="M126.049 189.459C129.045 190.763 132.135 192.069 134.01 193.36" stroke="black" stroke-miterlimit="10"/>
<path d="M136.096 135.008C136.096 135.008 136.11 123.238 138.818 118.992C141.525 114.747 142.879 112.431 143.072 113.589C143.266 114.747 140.751 119.763 140.751 119.763C140.751 119.763 145.587 112.045 148.875 112.817C152.164 113.589 143.46 123.623 143.847 125.939C144.234 128.254 148.102 120.729 151.583 120.15C155.064 119.571 143.792 131.149 143.142 135.008H136.096Z" fill="white" stroke="black" stroke-miterlimit="10"/>
<path d="M142.468 120.62L148.299 112.766" stroke="black" stroke-miterlimit="10"/>
<path d="M78.3453 139.554C78.3453 139.554 80.8319 123.999 79.351 118.628C77.8691 113.256 81.3413 101.931 81.3413 101.931L93.8253 103.988L96.1732 123.125L91.5558 129.505L89.8729 140.953C89.8729 140.953 84.5401 142.598 78.3453 139.554Z" fill="white" stroke="black" stroke-miterlimit="10"/>
<path d="M75.7532 105.116C73.7017 105.988 72.8035 108.397 73.7861 110.393C75.3996 113.674 79.3228 116.444 79.4816 118.337C80.3114 128.243 95.4247 138.284 97.9193 122.976C98.4728 119.581 94.9234 114.373 94.9234 114.373C94.9234 114.373 85.4222 118.502 82.7538 113.374C80.0864 108.247 81.1935 106.74 81.1935 106.74C81.1935 106.74 93.0145 107.547 95.9843 103.666C97.8218 101.264 97.8078 94.838 97.8078 94.838C97.8078 94.838 80.2572 93.7485 77.432 98.0315C75.7321 100.613 75.7532 105.116 75.7532 105.116Z" fill="black"/>
<path d="M95.5634 117.033C92.7925 124.053 87.0287 118.39 87.0287 118.39L95.5634 117.033Z" fill="#FEFEFE"/>
<path d="M79.3038 111.111C79.3038 111.111 75.4217 108.867 74.0785 110.973C72.7352 113.08 78.2017 115.956 80.2623 115.532L79.3038 111.111Z" fill="white" stroke="black" stroke-miterlimit="10"/>
<path d="M66.9353 130.774C66.9353 130.774 76.1672 142.09 89.882 141.3L66.9353 130.774Z" fill="white"/>
<path d="M88.5317 141.439C82.0275 141.439 76.6545 138.755 73.2085 136.416C69.2199 133.709 66.88 130.866 66.8569 130.837L67.0127 130.711C67.0358 130.739 69.3606 133.564 73.327 136.254C76.983 138.735 82.8212 141.605 89.876 141.201L89.888 141.401C89.4309 141.427 88.9788 141.439 88.5317 141.439Z" fill="url(#paint8_linear_123_2)"/>
<defs>
<linearGradient id="paint0_linear_123_2" x1="189.5" y1="59.9116" x2="189.5" y2="309.619" gradientUnits="userSpaceOnUse">
<stop stop-color="#5349DE"/>
<stop offset="1" stop-color="#7866FA"/>
</linearGradient>
<linearGradient id="paint1_linear_123_2" x1="279.617" y1="258.848" x2="279.617" y2="335.812" gradientUnits="userSpaceOnUse">
<stop stop-color="white"/>
<stop offset="0.043" stop-color="#F6F5FD"/>
<stop offset="0.3864" stop-color="#B1ACF0"/>
<stop offset="0.6714" stop-color="#7E77E6"/>
<stop offset="0.8839" stop-color="#5F55E0"/>
<stop offset="1" stop-color="#5349DE"/>
</linearGradient>
<linearGradient id="paint2_linear_123_2" x1="301.463" y1="258.44" x2="333.224" y2="285.129" gradientUnits="userSpaceOnUse">
<stop stop-color="white"/>
<stop offset="0.043" stop-color="#F6F5FD"/>
<stop offset="0.3864" stop-color="#B1ACF0"/>
<stop offset="0.6714" stop-color="#7E77E6"/>
<stop offset="0.8839" stop-color="#5F55E0"/>
<stop offset="1" stop-color="#5349DE"/>
</linearGradient>
<linearGradient id="paint3_linear_123_2" x1="276.526" y1="344.12" x2="279.085" y2="232.522" gradientUnits="userSpaceOnUse">
<stop stop-color="#5E4AED"/>
<stop offset="1" stop-color="#9B79F8"/>
</linearGradient>
<linearGradient id="paint4_linear_123_2" x1="314.79" y1="296.897" x2="312.55" y2="248.473" gradientUnits="userSpaceOnUse">
<stop stop-color="#5E4AED"/>
<stop offset="1" stop-color="#9B79F8"/>
</linearGradient>
<linearGradient id="paint5_linear_123_2" x1="51.0948" y1="-19.7894" x2="51.0948" y2="33.0299" gradientUnits="userSpaceOnUse">
<stop stop-color="#FFFAC0"/>
<stop offset="0.515625" stop-color="#FFC880"/>
<stop offset="1" stop-color="white"/>
</linearGradient>
<linearGradient id="paint6_linear_123_2" x1="328.509" y1="18.1148" x2="328.509" y2="56.4069" gradientUnits="userSpaceOnUse">
<stop stop-color="#FFFAC0"/>
<stop offset="0.3477" stop-color="#FFC880"/>
<stop offset="1" stop-color="white"/>
</linearGradient>
<linearGradient id="paint7_linear_123_2" x1="52.7247" y1="134.702" x2="95.6879" y2="134.702" gradientUnits="userSpaceOnUse">
<stop stop-color="#7866FA"/>
<stop offset="1" stop-color="#5349DE"/>
</linearGradient>
<linearGradient id="paint8_linear_123_2" x1="66.9711" y1="136.075" x2="89.8801" y2="136.075" gradientUnits="userSpaceOnUse">
<stop stop-color="#7866FA"/>
<stop offset="1" stop-color="#5349DE"/>
</linearGradient>
</defs>
</svg>
