<svg width="30" height="39" viewBox="0 0 30 39" fill="none" xmlns="http://www.w3.org/2000/svg">
<path d="M15 17.1429C16.6953 17.1429 18.3525 16.6402 19.762 15.6983C21.1716 14.7565 22.2702 13.4178 22.919 11.8516C23.5677 10.2854 23.7375 8.56192 23.4067 6.89923C23.076 5.23654 22.2597 3.70925 21.0609 2.51052C19.8622 1.31178 18.3349 0.495432 16.6722 0.164701C15.0095 -0.166029 13.2861 0.00371384 11.7199 0.652465C10.1536 1.30122 8.81496 2.39984 7.87312 3.8094C6.93128 5.21897 6.42857 6.87616 6.42857 8.57143C6.42857 10.8447 7.33163 13.0249 8.93908 14.6323C10.5465 16.2398 12.7267 17.1429 15 17.1429ZM27.8571 38.5714C28.4255 38.5714 28.9705 38.3457 29.3724 37.9438C29.7742 37.5419 30 36.9969 30 36.4286C30 32.4503 28.4196 28.635 25.6066 25.822C22.7936 23.0089 18.9782 21.4286 15 21.4286C11.0218 21.4286 7.20644 23.0089 4.3934 25.822C1.58035 28.635 5.92805e-08 32.4503 0 36.4286C0 36.9969 0.225765 37.5419 0.627629 37.9438C1.02949 38.3457 1.57454 38.5714 2.14286 38.5714H27.8571Z" fill="#5C50E4"/>
</svg>
