<svg width="36" height="36" viewBox="0 0 36 36" fill="none" xmlns="http://www.w3.org/2000/svg">
<circle cx="18" cy="18" r="18" fill="#7266F8"/>
<path d="M26.1564 20.9932L26.8937 14.161C26.992 13.4237 26.1564 12.9814 25.5666 13.4729L21.8802 16.5203C21.4869 16.8152 20.8971 16.7169 20.6514 16.2746L19.0293 13.4237C18.7344 12.9322 17.948 12.9322 17.6039 13.4729L15.9819 16.3237C15.7361 16.7661 15.1463 16.8644 14.7531 16.5695L11.0666 13.522C10.5259 13.0797 9.69035 13.522 9.7395 14.2102L10.4768 21.0424C10.5259 21.4356 10.87 21.7796 11.2632 21.7796H25.2717C25.7632 21.7305 26.1073 21.4356 26.1564 20.9932ZM10.7717 24.7288V25.6135C10.7717 26.0559 11.1158 26.4 11.5581 26.4H24.9768C25.4191 26.4 25.7632 26.0559 25.7632 25.6135V24.7288C25.7632 24.2864 25.4191 23.9424 24.9768 23.9424H11.6073C11.1649 23.8932 10.7717 24.2864 10.7717 24.7288Z" fill="#FFCD53"/>
<path d="M27.4343 11.0644C28.0044 11.0644 28.4665 10.6023 28.4665 10.0322C28.4665 9.46213 28.0044 9 27.4343 9C26.8642 9 26.4021 9.46213 26.4021 10.0322C26.4021 10.6023 26.8642 11.0644 27.4343 11.0644Z" fill="#FFCD53"/>
<path d="M18.3413 11.0644C18.9114 11.0644 19.3735 10.6023 19.3735 10.0322C19.3735 9.46213 18.9114 9 18.3413 9C17.7712 9 17.3091 9.46213 17.3091 10.0322C17.3091 10.6023 17.7712 11.0644 18.3413 11.0644Z" fill="#FFCD53"/>
<path d="M9.19883 11.0644C9.7689 11.0644 10.231 10.6023 10.231 10.0322C10.231 9.46213 9.7689 9 9.19883 9C8.62876 9 8.16663 9.46213 8.16663 10.0322C8.16663 10.6023 8.62876 11.0644 9.19883 11.0644Z" fill="#FFCD53"/>
</svg>
