<svg width="114" height="114" viewBox="0 0 114 114" fill="none" xmlns="http://www.w3.org/2000/svg">
<g filter="url(#filter0_d_145_4)">
<circle cx="57" cy="51" r="33" fill="#FE783E"/>
</g>
<path d="M70.8686 52.839C70.4198 56.5902 68.6015 60.0238 65.7821 62.4579C62.9626 64.8921 59.3491 66.1503 55.655 65.9857C51.9609 65.821 48.474 64.2336 45.8847 61.5407C45.5164 61.1762 45.2978 60.6706 45.2748 60.1414C45.2518 59.6122 45.4359 59.0948 45.7696 58.695C46.1379 58.307 46.6327 58.0953 47.1621 58.0953C47.6915 58.0953 48.1863 58.3187 48.5546 58.695C49.6593 59.8945 51.0173 60.8234 52.5363 61.3996C54.9991 62.3404 57.715 62.3286 60.1777 61.3643C62.6404 60.4001 64.6658 58.5657 65.8857 56.1786C67.1055 53.8033 67.4392 51.0399 66.8178 48.4294C66.1964 45.8188 64.6658 43.5258 62.5138 41.9854C60.3618 40.4449 57.7265 39.7629 55.1141 40.0569C52.5018 40.3509 50.0851 41.6208 48.3129 43.6081L49.0494 43.8551C49.4062 43.9844 49.6824 44.2902 49.7514 44.6782C49.832 45.0545 49.7054 45.4543 49.4177 45.713L44.9871 49.7346C44.6994 49.9933 44.2966 50.0756 43.9398 49.958C43.5716 49.8287 43.3069 49.5229 43.2264 49.1349L42.0295 43.2083C41.9375 42.8203 42.064 42.4087 42.3633 42.1382C42.6625 41.8678 43.0652 41.7855 43.4335 41.9266L44.4232 42.2558C46.9665 38.6223 50.9713 36.341 55.3328 36.0353C59.6943 35.7295 63.9638 37.4228 66.9789 40.6684C69.994 43.9139 71.421 48.3588 70.8916 52.792L70.8686 52.839Z" fill="white"/>
<defs>
<filter id="filter0_d_145_4" x="0" y="0" width="114" height="114" filterUnits="userSpaceOnUse" color-interpolation-filters="sRGB">
<feFlood flood-opacity="0" result="BackgroundImageFix"/>
<feColorMatrix in="SourceAlpha" type="matrix" values="0 0 0 0 0 0 0 0 0 0 0 0 0 0 0 0 0 0 127 0" result="hardAlpha"/>
<feOffset dy="6"/>
<feGaussianBlur stdDeviation="12"/>
<feComposite in2="hardAlpha" operator="out"/>
<feColorMatrix type="matrix" values="0 0 0 0 0.996078 0 0 0 0 0.470588 0 0 0 0 0.243137 0 0 0 0.5 0"/>
<feBlend mode="normal" in2="BackgroundImageFix" result="effect1_dropShadow_145_4"/>
<feBlend mode="normal" in="SourceGraphic" in2="effect1_dropShadow_145_4" result="shape"/>
</filter>
</defs>
</svg>
