<svg width="51" height="61" viewBox="0 0 51 61" fill="none" xmlns="http://www.w3.org/2000/svg">
<path d="M44.7833 54.4656L7.99429 54.5406C5.17045 54.5474 2.85503 52.259 2.85159 49.4556L2.80006 25.678C2.79319 22.8746 5.0983 20.576 7.92215 20.5726L44.7112 20.4976C47.535 20.4907 49.8504 22.7791 49.8539 25.5825L49.9054 49.3636C49.9123 52.1635 47.6072 54.4622 44.7833 54.4656Z" fill="#9D6EF7"/>
<path d="M7.9839 55.0556C4.87493 55.0556 2.34308 52.5489 2.33621 49.4591L2.28468 25.678C2.27781 22.5847 4.80622 20.0644 7.92207 20.0576L44.7111 19.9826C44.7145 19.9826 44.718 19.9826 44.7214 19.9826C47.8304 19.9826 50.3622 22.4893 50.3691 25.5791L50.4206 49.3602C50.424 50.8539 49.8366 52.259 48.7716 53.3231C47.7033 54.3872 46.2879 54.9738 44.7867 54.9772L7.99765 55.0522C7.99078 55.0556 7.98734 55.0556 7.9839 55.0556ZM44.7214 21.0057C44.718 21.0057 44.7145 21.0057 44.7111 21.0057L7.92207 21.0807C5.37648 21.0876 3.30841 23.1475 3.31528 25.6746L3.36681 49.4556C3.37368 51.9794 5.44176 54.0291 7.9839 54.0291C7.98734 54.0291 7.99078 54.0291 7.99421 54.0291L44.7832 53.954C46.0096 53.9506 47.1673 53.4697 48.0399 52.6001C48.9125 51.7304 49.3934 50.5777 49.39 49.3602L49.3385 25.5791C49.335 23.0554 47.2635 21.0057 44.7214 21.0057Z" fill="#233863"/>
<path opacity="0.24" d="M44.7833 54.4656L7.99429 54.5406C5.17045 54.5474 2.85503 52.259 2.85159 49.4556L2.80006 25.678C2.79319 22.8746 5.0983 20.576 7.92215 20.5726L44.7112 20.4976C47.535 20.4907 49.8504 22.7791 49.8539 25.5825L49.9054 49.3636C49.9123 52.1635 47.6072 54.4622 44.7833 54.4656Z" fill="#233863"/>
<path d="M33.388 29.5045L12.6145 37.9318C12.3912 38.0238 12.1336 37.9147 12.0408 37.693L0.549597 9.7683C0.456843 9.54662 0.566774 9.29084 0.79007 9.19875L21.5635 0.771541C21.7868 0.679459 22.0445 0.788595 22.1373 1.01027L33.6285 28.935C33.7178 29.1601 33.6113 29.4125 33.388 29.5045Z" fill="white"/>
<path d="M12.4463 38.474C12.3226 38.474 12.1955 38.4501 12.0753 38.399C11.8417 38.3001 11.6562 38.1193 11.56 37.884L0.0722066 9.96269C-0.0239828 9.72737 -0.0239828 9.47159 0.0756419 9.23627C0.175267 9.00436 0.35734 8.82019 0.594378 8.7247L21.3679 0.300901C21.8557 0.103095 22.4122 0.335007 22.6114 0.81929L34.1026 28.744C34.3019 29.2283 34.0683 29.7808 33.5805 29.9786L12.807 38.4058C12.6902 38.4501 12.5665 38.474 12.4463 38.474ZM1.05471 9.64552L12.4875 37.427L33.1201 29.0578L21.6873 1.27629L1.05471 9.64552Z" fill="#233863"/>
<path d="M18.6195 11.3712C18.4855 11.3712 18.355 11.2928 18.3 11.1598C18.2279 10.9858 18.3137 10.788 18.4889 10.7164L22.0617 9.26696C22.2369 9.19534 22.4361 9.2806 22.5083 9.45454C22.5804 9.62847 22.4945 9.82627 22.3193 9.89789L18.7466 11.3473C18.7088 11.361 18.6641 11.3712 18.6195 11.3712Z" fill="#233863"/>
<path d="M8.72227 21.5446C8.58829 21.5446 8.45775 21.4661 8.40278 21.3331C8.33064 21.1592 8.41652 20.9614 8.59173 20.8898L24.2362 14.5463C24.4115 14.4747 24.6107 14.56 24.6828 14.7339C24.755 14.9078 24.6691 15.1056 24.4939 15.1773L8.84938 21.5207C8.81159 21.5377 8.76693 21.5446 8.72227 21.5446Z" fill="#233863"/>
<path d="M19.6261 21.3161C19.4921 21.3161 19.3616 21.2376 19.3066 21.1046C19.2344 20.9307 19.3203 20.7329 19.4955 20.6613L25.7135 18.1409C25.8887 18.0693 26.0879 18.1546 26.1601 18.3285C26.2322 18.5024 26.1463 18.7003 25.9711 18.7719L19.7532 21.2922C19.7154 21.3058 19.6707 21.3161 19.6261 21.3161Z" fill="#FFB44F"/>
<path d="M10.1996 25.1392C10.0656 25.1392 9.93504 25.0607 9.88008 24.9277C9.80794 24.7538 9.89382 24.556 10.069 24.4844L13.8754 22.9394C14.0506 22.8678 14.2498 22.9531 14.322 23.127C14.3941 23.3009 14.3082 23.4987 14.133 23.5704L10.3267 25.1153C10.2889 25.1289 10.2442 25.1392 10.1996 25.1392Z" fill="#FFB44F"/>
<path d="M11.4295 29.3272C11.2956 29.3272 11.165 29.2488 11.1101 29.1157C11.0379 28.9418 11.1238 28.744 11.299 28.6724L20.9351 24.764C21.1103 24.6924 21.3096 24.7777 21.3817 24.9516C21.4539 25.1255 21.368 25.3233 21.1928 25.395L11.5567 29.3033C11.5154 29.317 11.4708 29.3272 11.4295 29.3272Z" fill="#233863"/>
<path d="M16.8677 13.9563L8.56109 17.5305C8.21068 17.6805 7.80532 17.5202 7.65416 17.1758L3.79284 8.32909C3.64169 7.98123 3.80315 7.57879 4.15012 7.42873L12.4568 3.85459C12.8072 3.70453 13.2125 3.86482 13.3637 4.20927L17.225 13.056C17.3762 13.4038 17.2147 13.8063 16.8677 13.9563Z" fill="#FFB44F"/>
<path d="M8.28617 17.9295C8.15906 17.9295 8.02852 17.9056 7.90485 17.8579C7.6472 17.759 7.44795 17.5646 7.33802 17.3122L3.4767 8.46551C3.36677 8.21314 3.36333 7.93689 3.46296 7.68111C3.56258 7.42533 3.7584 7.22752 4.01261 7.11839L12.3227 3.54424C12.8449 3.31915 13.4529 3.55788 13.6796 4.07627L17.541 12.923C17.6509 13.1753 17.6543 13.4516 17.5547 13.7074C17.4551 13.9631 17.2593 14.161 17.0051 14.2701L8.69841 17.8442C8.56443 17.8988 8.42358 17.9295 8.28617 17.9295ZM12.7315 4.14107C12.6868 4.14107 12.6387 4.1513 12.5941 4.16835L4.28744 7.7425C4.20156 7.78001 4.13628 7.84481 4.10537 7.93007C4.07101 8.01533 4.07445 8.10742 4.1088 8.19268L7.97012 17.0394C8.00791 17.1246 8.07318 17.1894 8.15906 17.2201C8.24495 17.2542 8.3377 17.2508 8.42358 17.2167L16.7302 13.6426C16.8161 13.6051 16.8814 13.5403 16.9123 13.455C16.9467 13.3697 16.9432 13.2777 16.9089 13.1924L13.0475 4.34911C12.9926 4.21951 12.8655 4.14107 12.7315 4.14107Z" fill="#233863"/>
<path d="M8.00773 9.27037C7.90811 9.27037 7.80505 9.24991 7.70886 9.21239C7.50617 9.13395 7.34815 8.98048 7.26226 8.78268L6.8088 7.7459C6.77101 7.66064 6.81223 7.55833 6.89812 7.52081C6.984 7.4833 7.08706 7.52422 7.12485 7.60948L7.57831 8.64626C7.62641 8.75881 7.71916 8.84748 7.83596 8.89522C7.95277 8.94297 8.07987 8.93956 8.19324 8.8884L8.26882 8.8543C8.45089 8.77586 8.53677 8.56441 8.45776 8.38025L7.31036 5.7542C7.22791 5.56663 7.00805 5.48137 6.8191 5.55981L6.68856 5.62461C6.48588 5.70987 6.39312 5.94519 6.48244 6.14299L6.50992 6.20779C6.54771 6.29305 6.50992 6.39537 6.42061 6.43288C6.33472 6.4704 6.23166 6.43288 6.19387 6.34421L6.16639 6.27941C6.00493 5.90767 6.1767 5.47114 6.55115 5.31085L6.68169 5.25287C7.0424 5.09599 7.46838 5.2631 7.62641 5.62461L8.77381 8.25065C8.9284 8.60533 8.7635 9.018 8.40623 9.17147L8.33065 9.20557C8.22416 9.24991 8.11766 9.27037 8.00773 9.27037Z" fill="#233863"/>
<path d="M12.879 5.3961C13.1607 5.68258 13.1573 6.13958 12.8687 6.41924C12.5802 6.69889 12.1198 6.69548 11.8381 6.40901C11.5564 6.12253 11.5599 5.66553 11.8484 5.38587C12.1336 5.10622 12.5973 5.10963 12.879 5.3961Z" fill="white"/>
<path d="M42.461 36.7245L20.2721 33.3822C20.0317 33.3447 19.8668 33.123 19.9046 32.8877L24.4633 3.06677C24.501 2.82803 24.7243 2.66433 24.9614 2.70185L47.1502 6.04409C47.3907 6.0816 47.5556 6.30328 47.5178 6.5386L42.9591 36.3595C42.9248 36.5983 42.7015 36.762 42.461 36.7245Z" fill="#74D5DE"/>
<path d="M42.5296 37.2428C42.4815 37.2428 42.4334 37.2394 42.3853 37.2326L20.1965 33.8904C19.9457 33.8529 19.7224 33.7198 19.5713 33.5152C19.4201 33.3106 19.3583 33.0616 19.3961 32.8127L23.9548 2.99173C23.9926 2.74277 24.1265 2.52109 24.3327 2.37103C24.5388 2.22097 24.7896 2.15958 25.0403 2.1971L47.2292 5.53934C47.4799 5.57685 47.7032 5.70986 47.8544 5.91448C48.0056 6.11911 48.0674 6.36808 48.0296 6.61704L43.4709 36.4414C43.4331 36.6903 43.2991 36.912 43.093 37.0621C42.9281 37.178 42.7323 37.2428 42.5296 37.2428ZM20.4267 32.8911L42.4644 36.2095L46.999 6.5386L24.9613 3.22023L20.4267 32.8911Z" fill="#233863"/>
<path d="M32.0863 8.01532C32.0691 8.01532 32.052 8.01532 32.0348 8.01191L27.775 7.37075C27.586 7.34346 27.4589 7.16953 27.4864 6.98196C27.5139 6.79438 27.6891 6.66819 27.878 6.69548L32.1378 7.33664C32.3268 7.36393 32.4539 7.53786 32.4264 7.72544C32.3989 7.89596 32.2546 8.01532 32.0863 8.01532Z" fill="white"/>
<path d="M43.1444 14.2633C43.1273 14.2633 43.1101 14.2633 43.0929 14.2599L38.201 13.5232C38.012 13.4959 37.8849 13.322 37.9124 13.1344C37.9399 12.9468 38.1151 12.8206 38.3041 12.8479L43.196 13.5846C43.3849 13.6119 43.512 13.7858 43.4845 13.9734C43.4571 14.1439 43.3093 14.2633 43.1444 14.2633Z" fill="#233863"/>
<path d="M34.7899 13.0048C34.7727 13.0048 34.7555 13.0048 34.7383 13.0014L26.3836 11.7429C26.1947 11.7157 26.0676 11.5417 26.095 11.3541C26.1225 11.1666 26.2977 11.0404 26.4867 11.0677L34.8414 12.3261C35.0303 12.3534 35.1575 12.5273 35.13 12.7149C35.1025 12.8854 34.9582 13.0048 34.7899 13.0048Z" fill="white"/>
<path d="M35.0922 18.8196C35.075 18.8196 35.0578 18.8196 35.0406 18.8162L25.5213 17.3838C25.3324 17.3565 25.2053 17.1826 25.2327 16.995C25.2602 16.8074 25.4354 16.6813 25.6244 16.7085L35.1437 18.1409C35.3326 18.1682 35.4597 18.3421 35.4323 18.5297C35.4048 18.7002 35.2605 18.8196 35.0922 18.8196Z" fill="#233863"/>
<path d="M41.4715 25.2108C41.4543 25.2108 41.4371 25.2108 41.42 25.2074L24.7139 22.6905C24.525 22.6632 24.3979 22.4892 24.4254 22.3017C24.4528 22.1141 24.628 21.9879 24.817 22.0152L41.523 24.5321C41.712 24.5594 41.8391 24.7333 41.8116 24.9209C41.7841 25.088 41.6398 25.2108 41.4715 25.2108Z" fill="white"/>
<path d="M33.2988 29.7467C33.2816 29.7467 33.2645 29.7467 33.2473 29.7433L23.8516 28.3279C23.6627 28.3006 23.5356 28.1267 23.5631 27.9391C23.5905 27.7516 23.7623 27.6254 23.9547 27.6527L33.3503 29.068C33.5393 29.0953 33.6664 29.2692 33.6389 29.4568C33.6114 29.6273 33.4637 29.7467 33.2988 29.7467Z" fill="white"/>
<path d="M46.1435 58.7116L6.63708 58.7934C4.56214 58.7969 2.85821 57.1155 2.85478 55.0556L2.79981 28.5769C2.79637 26.517 4.49 24.8254 6.56494 24.822L46.0713 24.7401C48.1463 24.7367 49.8502 26.4181 49.8536 28.478L49.9086 54.9567C49.912 57.0166 48.2184 58.7082 46.1435 58.7116Z" fill="white"/>
<path d="M6.62684 59.1345C5.5344 59.1345 4.5038 58.7116 3.72398 57.9408C2.94415 57.1667 2.5113 56.1435 2.50787 55.0556L2.4529 28.5769C2.44947 27.489 2.87888 26.4624 3.65527 25.6883C4.43166 24.9107 5.46569 24.4844 6.56156 24.481L46.0679 24.3991C46.0714 24.3991 46.0748 24.3991 46.0782 24.3991C48.3456 24.3991 50.1903 26.2271 50.1972 28.478L50.2522 54.9567C50.2556 57.211 48.4143 59.0492 46.1435 59.0526V58.7116V59.0526L6.63714 59.1345C6.63371 59.1345 6.63027 59.1345 6.62684 59.1345ZM46.0782 25.0778C46.0748 25.0778 46.0748 25.0778 46.0714 25.0778L6.565 25.1596C5.6512 25.163 4.79237 25.5177 4.14309 26.1657C3.49381 26.8137 3.13653 27.6663 3.13997 28.5735L3.19493 55.0522C3.19837 55.9594 3.55564 56.812 4.20836 57.4565C4.85764 58.0977 5.71647 58.4524 6.62684 58.4524C6.63027 58.4524 6.63027 58.4524 6.63371 58.4524L46.1401 58.3705C48.0329 58.3671 49.5685 56.8358 49.5651 54.9567L49.5101 28.478C49.5033 26.6023 47.9677 25.0778 46.0782 25.0778Z" fill="#233863"/>
<path d="M46.463 18.366L36.4971 18.3865C34.6489 18.3899 33.1407 19.8939 33.1442 21.7287L33.1545 26.4624L7.91507 26.5136C5.09122 26.5204 2.78611 28.819 2.79298 31.619L2.84451 55.4001C2.85138 58.2034 5.1668 60.4919 7.98721 60.485L44.7762 60.41C47.6001 60.4032 49.9052 58.1045 49.8983 55.3046L49.8502 32.0112V31.5235L49.8296 21.6946C49.8262 19.8598 48.3112 18.3626 46.463 18.366Z" fill="#905AF6"/>
<path d="M7.98024 61C4.87126 61 2.33942 58.4933 2.33255 55.4035L2.28102 31.6224C2.27415 28.5292 4.80256 26.0088 7.91841 26.002L32.6425 25.9509L32.6322 21.7287C32.6288 20.7056 33.0307 19.7404 33.7659 19.0106C34.4976 18.2808 35.4698 17.8783 36.5004 17.8749L46.4663 17.8545C46.4698 17.8545 46.4732 17.8545 46.4732 17.8545C48.6065 17.8545 50.3414 19.5733 50.3483 21.6912L50.4204 55.3012C50.4273 58.3944 47.8989 60.9147 44.783 60.9216L7.99398 61C7.98711 61 7.98368 61 7.98024 61ZM46.4663 18.8776L36.5004 18.8981C35.7446 18.8981 35.0335 19.1948 34.4942 19.7336C33.9548 20.2691 33.6594 20.9784 33.6628 21.7287L33.6731 26.4624C33.6731 26.5988 33.6182 26.7284 33.522 26.8239C33.4258 26.9194 33.2952 26.974 33.1578 26.974L7.91841 27.0251C5.37282 27.032 3.30475 29.0919 3.31162 31.619L3.36315 55.4001C3.37002 57.9238 5.43809 59.9735 7.98024 59.9735C7.98368 59.9735 7.98711 59.9735 7.99055 59.9735L44.7796 59.895C47.3252 59.8916 49.3932 57.8283 49.3864 55.3012L49.3142 21.6912C49.3108 20.136 48.0363 18.8742 46.4698 18.8742C46.4698 18.8776 46.4663 18.8776 46.4663 18.8776Z" fill="#233863"/>
<path opacity="0.12" d="M46.1194 22.1584L37.2047 22.1755C35.5523 22.1789 34.2022 23.526 34.2057 25.1665L34.216 29.4022L11.6321 29.45C9.1071 29.4568 7.04246 31.5133 7.04933 34.02L7.09399 55.3046C7.10086 57.8112 9.16894 59.8609 11.6973 59.8541L44.6147 59.7859C47.1397 59.7791 49.2044 57.7226 49.1975 55.2159L49.1528 34.3678V33.9313L49.1356 25.1358C49.1253 23.4953 47.7718 22.155 46.1194 22.1584Z" fill="white"/>
<path d="M46.638 55.5092C46.638 56.43 45.8857 57.1735 44.9616 57.1735C44.0375 57.1735 43.2852 56.4266 43.2852 55.5092C43.2852 54.5884 44.0375 53.8449 44.9616 53.8449C45.8857 53.8449 46.638 54.5884 46.638 55.5092Z" fill="white"/>
<path d="M47.8094 27.3594C47.6205 27.3594 47.4659 27.2059 47.4659 27.0183V22.4858C47.4659 21.7253 46.7857 21.108 45.9509 21.108H42.6255C42.4366 21.108 42.282 20.9546 42.282 20.767C42.282 20.5794 42.4366 20.4259 42.6255 20.4259H45.9509C47.167 20.4259 48.153 21.3502 48.153 22.4858V27.0183C48.153 27.2059 47.9984 27.3594 47.8094 27.3594Z" fill="white"/>
<path d="M23.2365 40.8068C23.0132 40.8068 22.7933 40.7215 22.625 40.551C22.2918 40.2133 22.2986 39.6745 22.6353 39.3437L26.6718 35.4046L30.6465 39.3505C30.9832 39.6847 30.9832 40.2236 30.6465 40.5578C30.3099 40.892 29.7671 40.892 29.4304 40.5578L26.6615 37.809L23.8411 40.5646C23.6693 40.7249 23.4529 40.8068 23.2365 40.8068Z" fill="white"/>
<path d="M26.6374 46.0895C26.1633 46.0895 25.7786 45.7076 25.7786 45.2369V36.6085C25.7786 36.1379 26.1633 35.7559 26.6374 35.7559C27.1115 35.7559 27.4962 36.1379 27.4962 36.6085V45.2369C27.4962 45.7076 27.1115 46.0895 26.6374 46.0895Z" fill="white"/>
<path d="M32.9585 50.1855H20.2134C19.1966 50.1855 18.3652 49.3636 18.3652 48.3507V43.7534C18.3652 43.2827 18.75 42.9008 19.2241 42.9008C19.6981 42.9008 20.0829 43.2827 20.0829 43.7534V48.3507C20.0829 48.4223 20.1413 48.4803 20.2134 48.4803H32.9585C33.0857 48.4803 33.1887 48.3779 33.1887 48.2518V43.7534C33.1887 43.2827 33.5735 42.9008 34.0475 42.9008C34.5216 42.9008 34.9064 43.2827 34.9064 43.7534V48.2552C34.9064 49.3192 34.0338 50.1855 32.9585 50.1855Z" fill="white"/>
</svg>
