<svg width="30" height="29" viewBox="0 0 30 29" fill="none" xmlns="http://www.w3.org/2000/svg">
<path d="M27 0H3C1.35 0 0 1.35 0 3V23C0 23.55 0.45 24 1 24H10C10.55 24 11 23.55 11 23C11 20.79 12.79 19 15 19C17.21 19 19 20.79 19 23C19 23.55 19.45 24 20 24H29C29.55 24 30 23.55 30 23V3C30 1.35 28.65 0 27 0Z" fill="#2ED7C6"/>
<path d="M30 3V23C30 23.55 29.55 24 29 24H20C19.45 24 19 23.55 19 23C19 20.79 17.21 19 15 19C12.79 19 11 20.79 11 23C11 23.55 10.55 24 10 24H2.25C4.46 23.58 6.58 22.9 8.57 22C13.1 19.94 16.99 16.71 19.84 12.7L19.85 12.69C19.88 12.64 19.92 12.59 19.95 12.54C20.21 12.18 20.46 11.81 20.69 11.43C20.69 11.42 20.7 11.41 20.71 11.4C20.97 10.99 21.23 10.56 21.47 10.13V10.12C22.86 7.62 23.88 4.89 24.46 2C24.59 1.34 24.7 0.67 24.78 0H27C28.65 0 30 1.35 30 3Z" fill="#75F4E6"/>
<path d="M21.447 10.105L11.447 5.105C11.137 4.951 10.77 4.967 10.474 5.149C10.18 5.332 10 5.653 10 6V16C10 16.347 10.18 16.668 10.474 16.851C10.635 16.95 10.817 17 11 17C11.153 17 11.306 16.965 11.447 16.895L21.447 11.895C21.786 11.725 22 11.379 22 11C22 10.621 21.786 10.275 21.447 10.105Z" fill="white"/>
<path d="M21.9998 11C21.9998 11.38 21.7898 11.73 21.4498 11.89L19.8398 12.7C20.4298 11.87 20.9698 11.01 21.4698 10.12C21.7998 10.29 21.9998 10.63 21.9998 11Z" fill="#5BFCEB"/>
<path d="M15 26C16.6569 26 18 24.6569 18 23C18 21.3431 16.6569 20 15 20C13.3431 20 12 21.3431 12 23C12 24.6569 13.3431 26 15 26Z" fill="#2ED7C6"/>
<path d="M29 29H1C0.448 29 0 28.552 0 28C0 27.448 0.448 27 1 27H29C29.552 27 30 27.448 30 28C30 28.552 29.552 29 29 29Z" fill="#2ED7C6"/>
</svg>
