<svg width="10" height="20" viewBox="0 0 10 20" fill="none" xmlns="http://www.w3.org/2000/svg">
<path d="M8.50652 19.0043C8.31438 19.0049 8.12454 18.9625 7.95094 18.8802C7.77734 18.7978 7.62439 18.6776 7.50335 18.5284L1.29136 10.8117C1.10219 10.5815 0.998779 10.2929 0.998779 9.99498C0.998779 9.69708 1.10219 9.40842 1.29136 9.17829L7.72199 1.46153C7.94029 1.19889 8.25399 1.03372 8.59408 1.00236C8.93416 0.971005 9.27278 1.07603 9.53542 1.29434C9.79807 1.51264 9.96324 1.82634 9.9946 2.16643C10.026 2.50651 9.92093 2.84513 9.70262 3.10777L3.95364 10.0014L9.5097 16.895C9.66697 17.0838 9.76688 17.3137 9.79759 17.5575C9.8283 17.8013 9.78854 18.0488 9.683 18.2707C9.57747 18.4925 9.41058 18.6796 9.20209 18.8096C8.99359 18.9396 8.75222 19.0072 8.50652 19.0043Z" fill="white"/>
</svg>
